<svg version="1.1" xmlns="http://www.w3.org/2000/svg" xmlns:xlink="http://www.w3.org/1999/xlink" width="917" height="730"><desc>title%20Coffee%20Shop%20Architectural%20Sketch%0A%0Aactor%20Barista%0Aparticipant%20WebBrowser%0Aparticipant%20Orders%0Adatabase%20Mockup%20Server%0A%0A%0A%23autoactivation%3A%20on%0ABarista-%3EWebBrowser%3AOpen%20Webpage%20(Enter%20URL)%0Aactivate%20WebBrowser%0AWebBrowser-%3EOrders%3ARequest%20Order%20Items%0Aactivate%20Orders%0AOrders-%3EMockup%20Server%3ARequest%20Data%20with%20**OrderService**%0Aactivate%20Mockup%20Server%0AMockup%20Server--%3EOrders%3A%20Retrieve%20Data%20(GET)%0Adeactivate%20Mockup%20Server%0AOrders--%3EWebBrowser%3A%20Show%20Order%20Items%0Adeactivate%20Orders%0ABarista-%3EWebBrowser%3A%20Change%20Status%20(Click)%0Anote%20over%20WebBrowser%2COrders%3A%20The%20Status%20can%20be%20Changed%20between%20%5CnOpen%2C%20Processing%20and%20Closed%0AWebBrowser-%3EOrders%3A%20Select%20Status%0Aactivate%20Orders%0AOrders-%3EMockup%20Server%3A%20Update%20Data%20with%20**OrderService**%20(PUT)%0Aactivate%20Mockup%20Server%0AMockup%20Server--%3EOrders%3A%20Update%20Orders%0Adeactivate%20Mockup%20Server%0AOrders--%3EWebBrowser%3A%20Show%20New%20Status%0Adeactivate%20Orders%0A%0A%0A%0A%0A%0A%0A%23Bob-%3E(1)Double%20click%20to%20edit%20text%3Anon-instantaneous%20message%0A%0A</desc><defs/><g><g/><g/><g/><g/><g/><g/><g/><g/><g/><g/><g/><g/><g/><g/><g/><g><rect fill="white" stroke="none" x="0" y="0" width="917" height="730"/></g><g><text fill="black" stroke="none" font-family="sans-serif" font-size="16.5pt" font-style="normal" font-weight="normal" text-decoration="normal" x="296.7814091042318" y="24.50280495" text-anchor="start" dominant-baseline="alphabetic" xml:space="preserve">Coffee Shop Architectural Sketch</text></g><g/><g><path fill="none" stroke="black" paint-order="fill stroke markers" d=" M 31.16760165 128.884754037 L 31.16760165 730.0202354769998" stroke-miterlimit="10" stroke-width="1.3612669416666667" stroke-dasharray="12.565541,5.445067766666667"/><path fill="none" stroke="black" paint-order="fill stroke markers" d=" M 267.89574543333333 128.884754037 L 267.89574543333333 730.0202354769998" stroke-miterlimit="10" stroke-width="1.3612669416666667" stroke-dasharray="12.565541,5.445067766666667"/><path fill="none" stroke="black" paint-order="fill stroke markers" d=" M 545.5661520333333 128.884754037 L 545.5661520333333 730.0202354769998" stroke-miterlimit="10" stroke-width="1.3612669416666667" stroke-dasharray="12.565541,5.445067766666667"/><path fill="none" stroke="black" paint-order="fill stroke markers" d=" M 860.4618974666666 128.884754037 L 860.4618974666666 730.0202354769998" stroke-miterlimit="10" stroke-width="1.3612669416666667" stroke-dasharray="12.565541,5.445067766666667"/></g><g><g><path fill="white" stroke="black" paint-order="fill stroke markers" d=" M 40.478667531 59.786844078 A 9.311065881 9.311065881 0 1 1 40.47866287546745 59.77753301367084 M 31.16760165 69.097909959 L 31.16760165 89.026857985 M 19.406255274000003 76.285399411 L 42.928948026 76.285399411 M 31.16760165 89.026857985 L 19.406255274000003 107.648989747 M 31.16760165 89.026857985 L 42.928948026 107.648989747" stroke-miterlimit="10" stroke-width="2.7769845610000004" stroke-dasharray=""/></g><g><g/><text fill="black" stroke="none" font-family="sans-serif" font-size="11pt" font-style="normal" font-weight="normal" text-decoration="normal" x="8.167601650000002" y="123.98419304699999" text-anchor="start" dominant-baseline="alphabetic" xml:space="preserve">Barista</text></g><path fill="none" stroke="none"/><g><path fill="white" stroke="black" paint-order="fill stroke markers" d=" M 207.1720498528333 84.779705127 L 328.61944101383335 84.779705127 L 328.61944101383335 128.884754037 L 207.1720498528333 128.884754037 L 207.1720498528333 84.779705127 Z" stroke-miterlimit="10" stroke-width="2.613632528" stroke-dasharray=""/></g><g><g/><text fill="black" stroke="none" font-family="sans-serif" font-size="11pt" font-style="normal" font-weight="normal" text-decoration="normal" x="224.89574543333333" y="112.549550737" text-anchor="start" dominant-baseline="alphabetic" xml:space="preserve">WebBrowser</text></g><path fill="none" stroke="none"/><g><path fill="white" stroke="black" paint-order="fill stroke markers" d=" M 504.8424564528333 84.779705127 L 586.2898476138333 84.779705127 L 586.2898476138333 128.884754037 L 504.8424564528333 128.884754037 L 504.8424564528333 84.779705127 Z" stroke-miterlimit="10" stroke-width="2.613632528" stroke-dasharray=""/></g><g><g/><text fill="black" stroke="none" font-family="sans-serif" font-size="11pt" font-style="normal" font-weight="normal" text-decoration="normal" x="522.5661520333333" y="112.549550737" text-anchor="start" dominant-baseline="alphabetic" xml:space="preserve">Orders</text></g><g><path fill="white" stroke="black" paint-order="fill stroke markers" d=" M 836.6125006486667 96.867755569 L 836.6125006486667 62.563828639 L 884.3112942846666 62.563828639 L 884.3112942846666 96.867755569" stroke-miterlimit="10" stroke-width="2.7769845610000004" stroke-dasharray=""/><path fill="white" stroke="black" paint-order="fill stroke markers" d=" M 884.3112942846666 61.3713587981 L 884.3101018247629 61.47916934301662 L 884.3065245642969 61.58696910696859 L 884.3005628609916 61.69474731006935 L 884.2922173110122 61.8024931745884 L 884.281488748907 61.91019592602908 L 884.2683782475232 62.017844794206 L 884.2528871179 62.125429014322044 L 884.2350169091374 62.232937828044854 L 884.2147694082413 62.34036048458265 L 884.1921466399451 62.44768624175929 L 884.1671508665067 62.55490436708851 L 884.1397845874827 62.66200413884712 L 884.1100505394782 62.76897484714718 L 884.077951695873 62.87580579500701 L 884.0434912665249 62.982486299420856 L 884.0066726974482 63.08900569242717 L 883.9674996704688 63.19535332217542 L 883.925976102857 63.30151855399125 L 883.882106146935 63.40749077143996 L 883.8358941896616 63.5132593773881 L 883.7873448521943 63.618813795063225 L 883.7364629894263 63.724143469111524 L 883.6832536895014 63.82923786665337 L 883.6277222733052 63.93408647833659 L 883.5698742939331 64.03867881938739 L 883.509715536135 64.1430044306588 L 883.4472520157364 64.24705287967667 L 883.3824899790371 64.35081376168277 L 883.3154359021871 64.45427670067541 L 883.2460964905382 64.55743135044686 L 883.1744786779735 64.66026739561813 L 883.1005896262149 64.7627745526704 L 883.0244367241058 64.86494257097338 L 882.946027586873 64.96676123381039 L 882.8653700553649 65.06822035939997 L 882.7824721952675 65.16930980191414 L 882.6973422962976 65.27001945249287 L 882.6099888713742 65.37033924025505 L 882.520420655767 65.47025913330548 L 882.428646606223 65.56976913973813 L 882.3346759000706 65.66885930863528 L 882.238517934302 65.7675197310626 L 882.1401823246339 65.86574054106009 L 882.0396789045451 65.96351191662859 L 881.9370177242939 66.06082408071202 L 881.8322090499129 66.15766730217506 L 881.725263362182 66.25403189677627 L 881.616191355581 66.3499082281365 L 881.5050039372197 66.4452867087025 L 881.3917122257471 66.54015780070569 L 881.2763275502402 66.63451201711595 L 881.1588614490702 66.72833992259025 L 881.0393256687493 66.82163213441623 L 880.917732162756 66.91437932345046 L 880.7940930903396 67.00657221505134 L 880.6684208153042 67.0982015900065 L 880.5407279047728 67.18925828545483 L 880.4110271279297 67.27973319580266 L 880.2793314547448 67.36961727363435 L 880.1456540546756 67.45890153061701 L 880.0100082953506 67.54757703839935 L 879.8724077412328 67.6356349295045 L 879.7328661522629 67.72306639821673 L 879.5913974824836 67.80986270146201 L 879.4480158786438 67.89601515968236 L 879.3027356787846 67.98151515770375 L 879.1555714108048 68.06635414559763 L 879.0065377910087 68.15052363953589 L 878.8556497226338 68.2340152226393 L 878.7029222943614 68.31682054581911 L 878.5483707788071 68.39893132861202 L 878.3920106309937 68.48033936000816 L 878.2338574868054 68.56103649927225 L 878.0739271614251 68.6410146767576 L 877.9122356477519 68.72026589471311 L 877.7487991148026 68.79878222808303 L 877.5836339060941 68.87655582529945 L 877.4167565380097 68.95357890906746 L 877.2481836981473 69.02984377714286 L 877.0779322436501 69.10534280310242 L 876.906019199522 69.18006843710643 L 876.732461756924 69.25401320665378 L 876.5572772714556 69.32716971732913 L 876.3804832614196 69.39953065354239 L 876.2020974060696 69.47108877926021 L 876.0221375438423 69.54183693872967 L 875.8406216705743 69.61176805719379 L 875.6575679377013 69.68087514159897 L 875.4729946504443 69.74915128129439 L 875.2869202659781 69.81658964872294 L 875.0993633915862 69.88318350010411 L 874.9103427827995 69.94892617610824 L 874.7198773415216 70.01381110252252 L 874.5279861141378 70.07783179090838 L 874.334688289611 70.14098183925032 L 874.1400031975625 70.20325493259614 L 873.9439503063393 70.26464484368842 L 873.7465492210671 70.32514543358717 L 873.54781968169 70.38475065228383 L 873.3477815609963 70.44345453930622 L 873.1464548626313 70.50125122431453 L 872.9438597190973 70.55813492768844 L 872.7400163897395 70.61409996110503 L 872.5349452587212 70.66914072810756 L 872.3286668329845 70.72325172466522 L 872.1212017402001 70.77642753972344 L 871.9125707267044 70.82866285574504 L 871.702794655425 70.87995244924193 L 871.491894503794 70.9302911912975 L 871.2798913616509 70.9796740480795 L 871.0668064291333 71.0280960813434 L 870.8526610145569 71.07555244892625 L 870.6374765322846 71.12203840523081 L 870.4212745005854 71.16754930170019 L 870.2040765394822 71.21208058728268 L 869.9859043685902 71.25562780888683 L 869.7667798049447 71.29818661182675 L 869.5467247608193 71.33975274025764 L 869.3257612415352 71.38032203760127 L 869.1039113432603 71.41989044696174 L 868.8811972507992 71.45845401153106 L 868.6576412353758 71.49600887498494 L 868.4332656524053 71.5325512818683 L 868.208092939259 71.56807757797091 L 867.9821456130206 71.60258421069277 L 867.7554462682344 71.63606772939937 L 867.528017574646 71.66852478576672 L 867.2998822749352 71.69995213411627 L 867.0710631824419 71.73034663173934 L 866.8415831788845 71.7597052392115 L 866.6114652120725 71.78802502069648 L 866.3807322936104 71.81530314423973 L 866.1494074965981 71.84153688205163 L 865.9175139533222 71.86672361078024 L 865.6850748529441 71.8908608117737 L 865.45211343918 71.913946071332 L 865.2186530079771 71.93597708094846 L 864.9847169051841 71.95695163754044 L 864.7503285242161 71.97686764366978 L 864.5155113037162 71.99572310775245 L 864.2802887252105 72.01351614425778 L 864.0446843107609 72.03024497389691 L 863.8087216206126 72.04590792380084 L 863.5724242508379 72.06050342768764 L 863.3358158309769 72.07403002601906 L 863.0989200216743 72.08648636614654 L 862.8617605123138 72.09787120244648 L 862.6243610186486 72.1081833964447 L 862.3867452804302 72.11742191693043 L 862.1489370590346 72.12558584005929 L 861.9109601350855 72.13267434944576 L 861.6728383060771 72.13868673624485 L 861.434595383994 72.14362239922286 L 861.1962551929296 72.14748084481762 L 860.9578415667046 72.1502616871878 L 860.7193783464828 72.15196464825142 L 860.4808893783877 72.15258955771385 L 860.2423985111171 72.15213635308466 L 860.0039295935593 72.15060507968391 L 859.7655064724071 72.14799589063767 L 859.5271529897741 72.1443090468627 L 859.2888929808097 72.13954491704027 L 859.0507502713165 72.1337039775794 L 858.8127486753668 72.12678681256918 L 858.574911992922 72.11879411372033 L 858.3372640074521 72.10972668029609 L 858.0998284835575 72.09958541903224 L 857.8626291645928 72.08837134404646 L 857.6256897702924 72.07608557673689 L 857.3890339943981 72.06272934567005 L 857.1526855022903 72.04830398645788 L 856.9166679286212 72.0328109416243 L 856.6810048749517 72.01625176046089 L 856.4457199073905 71.99862809887196 L 856.2108365542385 71.97994171920898 L 855.9763783036352 71.96019449009434 L 855.7423686012104 71.9393883862345 L 855.508830847739 71.91752548822251 L 855.2757883968021 71.89460798232996 L 855.0432645524504 71.87063816028832 L 854.8112825668745 71.84561841905983 L 854.5798656380799 71.81955126059778 L 854.3490369075664 71.79243929159627 L 854.1188194580149 71.7642852232296 L 853.8892363109783 71.73509187088118 L 853.66031042458 71.7048621538619 L 853.432064691218 71.67359909511825 L 853.2045219352754 71.64130582093009 L 852.977704910838 71.6079855605979 L 852.7516362994196 71.57364164611994 L 852.5263387076926 71.53827751185906 L 852.3018346652285 71.50189669419922 L 852.0781466222446 71.46450283119185 L 851.8552969473587 71.42609966219209 L 851.6333079253526 71.38669102748484 L 851.4122017549436 71.34628086790075 L 851.1920005465641 71.30487322442208 L 850.972726320152 71.26247223777868 L 850.7544010029468 71.21908214803388 L 850.5370464272984 71.17470729416048 L 850.3206843284834 71.12935211360693 L 850.105336342531 71.08302114185344 L 849.8910240040608 71.0357190119586 L 849.6777687441277 70.987450454096 L 849.4655918880802 70.93822029508118 L 849.2545146534269 70.88803345788901 L 849.0445581477155 70.8368949611614 L 848.8357433664216 70.7848099187054 L 848.6280911908493 70.73178353898187 L 848.4216223860432 70.67782112458457 L 848.2163575987115 70.62292807170999 L 848.012317355162 70.56710986961765 L 847.809522059249 70.51037210008127 L 847.6079919903333 70.4527204368305 L 847.4077473012536 70.39416064498364 L 847.208808016312 70.33469858047107 L 847.0111940292712 70.27434018944969 L 846.8149251013654 70.2130915077083 L 846.6200208593235 70.15095866006402 L 846.4265007934076 70.08794785974987 L 846.2343842554628 70.02406540779336 L 846.0436904569831 69.95931769238642 L 845.8544384671891 69.89371118824668 L 845.6666472111222 69.82725245596986 L 845.4803354677515 69.7599481413738 L 845.2955218680961 69.69180497483389 L 845.112224893362 69.62282977060998 L 844.9304628730938 69.55302942616503 L 844.7502539833423 69.4824109214753 L 844.571616244846 69.41098131833243 L 844.3945675212301 69.3387477596372 L 844.2191255172193 69.26571746868528 L 844.0453077768678 69.19189774844492 L 843.8731316818049 69.1172959808266 L 843.7026144494965 69.04191962594494 L 843.533773131524 68.96577622137262 L 843.366624611878 68.88887338138663 L 843.2011856052717 68.81121879620687 L 843.0374726554675 68.73282023122718 L 842.8755021336242 68.6536855262387 L 842.7152902366589 68.573822594646 L 842.5568529856278 68.49323942267567 L 842.400206224124 68.41194406857777 L 842.2453656166931 68.32994466181995 L 842.0923466472668 68.24724940227456 L 841.9411646176145 68.16386655939866 L 841.7918346458132 68.07980447140702 L 841.6443716647357 67.99507154443839 L 841.4987904205572 67.90967625171488 L 841.3551054712807 67.8236271326946 L 841.2133311852815 67.73693279221771 L 841.0734817398701 67.64960189964606 L 840.9355711198743 67.56164318799608 L 840.7996131162413 67.47306545306569 L 840.6656213246582 67.38387755255452 L 840.5336091441925 67.29408840517834 L 840.4035897759521 67.20370698977703 L 840.2755762217656 67.11274234441683 L 840.1495812828817 67.02120356548647 L 840.0256175586894 66.92909980678756 L 839.9036974454577 66.83644027861922 L 839.7838331350963 66.74323424685704 L 839.6660366139364 66.64949103202653 L 839.550319661532 66.55522000837107 L 839.4366938494817 66.46043060291444 L 839.3251705402723 66.3651322945182 L 839.2157608861417 66.2693346129338 L 839.108475827964 66.17304713784955 L 839.0033260941557 66.07627949793272 L 838.9003221996027 65.97904136986665 L 838.7994744446083 65.88134247738313 L 838.7007929138642 65.78319259028999 L 838.6042874754413 65.68460152349414 L 838.5099677798029 65.58557913602012 L 838.4178432588399 65.48613533002413 L 838.3279231249277 65.38628004980393 L 838.2402163700048 65.2860232808043 L 838.1547317646734 65.18537504861862 L 838.0714778573232 65.08434541798623 L 837.9904629732752 64.982944491786 L 837.9116952139503 64.88118241002603 L 837.8351824560591 64.77906934882972 L 837.7609323508133 64.67661551941809 L 837.6889523231617 64.5738311670887 L 837.619249571047 64.47072657019112 L 837.5518310646866 64.36731203909913 L 837.4867035458745 64.26359791517966 L 837.4238735273086 64.15959456975868 L 837.3633472919385 64.05531240308405 L 837.3051308923369 63.95076184328555 L 837.2492301500957 63.84595334533201 L 837.1956506552423 63.74089738998592 L 837.1443977656814 63.63560448275524 L 837.0954766066596 63.530085152842965 L 837.0488920702518 63.42434995209415 L 837.0046488148729 63.318409453940745 L 836.9627512648115 63.2122742523443 L 836.9232036097877 63.105954960736526 L 836.8860098045341 62.99946221095797 L 836.8511735684002 62.892806652194885 L 836.8186983849805 62.78599894991426 L 836.7885875017665 62.679049784797314 L 836.7608439298212 62.57196985167143 L 836.7354704434789 62.464769858440704 L 836.7124695800669 62.357460525015114 L 836.6918436396525 62.25005258223858 L 836.6735946848123 62.14255677081588 L 836.6577245404269 62.03498384023857 L 836.6442347934974 61.92734454771006 L 836.6331267929871 61.81964965706991 L 836.6244016496871 61.71190993771744 L 836.6180602361042 61.6041361635348 L 836.6141031863746 61.49633911180959 L 836.6125308961998 61.38852956215717 L 836.6133435228078 61.28071829544265 L 836.6165409849364 61.172916092702856 L 836.622122962842 61.06513373406823 L 836.6300888983317 60.957381997684834 L 836.6404379948184 60.84967165863649 L 836.6531692174012 60.74201348786736 L 836.6682812929683 60.6344182511048 L 836.685772710325 60.526896707782825 L 836.7056417203437 60.41945960996616 L 836.7278863361404 60.31211770127506 L 836.7525043332719 60.204881715810956 L 836.7794932499588 60.097762377083015 L 836.8088503873322 59.99077039693585 L 836.8405728097027 59.88391647447831 L 836.8746573448547 59.7772112950136 L 836.9111005843627 59.67066552897075 L 836.9498988839334 59.56428983083758 L 836.9910483637691 59.45809483809524 L 837.0345449089561 59.35209117015452 L 837.0803841698762 59.24628942729389 L 837.1285615626414 59.14070018959944 L 837.1790722695526 59.03533401590697 L 837.2319112395812 58.93020144274604 L 837.2870731888744 58.82531298328635 L 837.344552601283 58.72067912628645 L 837.4043437289138 58.61631033504484 L 837.4664405927036 58.51221704635366 L 837.5308369830182 58.40840966945505 L 837.597526460272 58.30489858500019 L 837.6665023555728 58.20169414401126 L 837.7377577713886 58.098806666846365 L 837.8112855822372 57.996246442167475 L 837.8870784353988 57.894023725911595 L 837.9651287516513 57.79214874026516 L 838.045428726028 57.69063167264185 L 838.1279703285984 57.58948267466382 L 838.2127453052711 57.488711861146584 L 838.2997451786191 57.38832930908751 L 838.3889612487275 57.28834505665816 L 838.4803845940636 57.18876910220045 L 838.5740060723691 57.08961140322686 L 838.6698163215741 56.99088187542464 L 838.7678057607337 56.8925903916643 L 838.8679645909856 56.794746781012314 L 838.9702827965301 56.6973608277482 L 839.0747501456319 56.60044227038614 L 839.1813561916434 56.5040008007011 L 839.2900902740487 56.40804606275968 L 839.40094151953 56.31258765195572 L 839.5138988430554 56.217635114050736 L 839.6289509489865 56.12319794421941 L 839.7460863322086 56.029285586100016 L 839.865293279281 55.93590743085011 L 839.9865598696084 55.8430728162074 L 840.1098739766328 55.75079102555599 L 840.2352232690463 55.65907128699804 L 840.362595212024 55.56792277243099 L 840.4919770684778 55.47735459663031 L 840.6233559003299 55.387375816338135 L 840.7567185698065 55.29799542935749 L 840.8920517407519 55.20922237365261 L 841.0293418799617 55.12106552645507 L 841.1685752585365 55.033533703376136 L 841.3097379532544 54.94663565752517 L 841.4528158479635 54.86038007863435 L 841.5977946349936 54.77477559218967 L 841.7446598165869 54.689830758568455 L 841.8933967063476 54.60555407218327 L 842.0439904307106 54.52195396063252 L 842.196425930429 54.439038783857704 L 842.3506879620797 54.35681683330739 L 842.5067610995884 54.27529633110813 L 842.6646297357712 54.19448542924221 L 842.8242780838962 54.114392208732454 L 842.9856901792613 54.03502467883419 L 843.1488498807918 53.95639077623426 L 843.3137408726533 53.878498364257396 L 843.4803466658842 53.801355232079885 L 843.648650600044 53.72496909395066 L 843.8186358448793 53.649347588419886 L 843.9902854020075 53.57449827757509 L 844.163582106616 53.50042864628498 L 844.3385086291785 53.42714610145097 L 844.5150474771887 53.35465797126647 L 844.6931809969087 53.28297150448409 L 844.8728913751353 53.21209386969077 L 845.0541606409802 53.14203215459092 L 845.2369706676678 53.072793365297684 L 845.421303174348 53.00438442563227 L 845.6071397279238 52.93681217643165 L 845.7944617448944 52.870083374864436 L 845.9832504932143 52.80420469375517 L 846.1734870941661 52.739182720917064 L 846.3651525242483 52.67502395849323 L 846.5582276170774 52.611734822306424 L 846.752693065305 52.54932164121754 L 846.9485294225486 52.48779065649267 L 847.1457171053354 52.427148021179015 L 847.3442363950617 52.36739979948956 L 847.5440674399637 52.3085519661967 L 847.7451902571034 52.25061040603471 L 847.9475847343671 52.19358091311133 L 848.1512306324754 52.13746919032833 L 848.3561075870082 52.08228084881122 L 848.5621951104408 52.02802140734818 L 848.7694725941927 51.974696291838114 L 848.9779193106882 51.922310834748146 L 849.1875144154294 51.87087027458034 L 849.3982369490803 51.82037975534783 L 849.6100658395634 51.770844326060484 L 849.822979904166 51.72226894021993 L 850.0369578516592 51.674658455324284 L 850.2519782844264 51.62801763238236 L 850.4680197006036 51.58235113543759 L 850.6850604962291 51.5376635311016 L 850.9030789674044 51.49395928809759 L 851.122053312464 51.451242776813444 L 851.3419616341557 51.409518268864694 L 851.562781941831 51.368789936667355 L 851.7844921536426 51.32906185302072 L 852.0070700987545 51.29033799070003 L 852.2304935195575 51.252622222059266 L 852.4547400738957 51.21591831864385 L 852.6797873373006 51.18022995081354 L 852.9056128052333 51.14556068737539 L 853.1321938953354 51.11191399522683 L 853.3595079496865 51.079293239009054 L 853.5875322370706 51.047701680770494 L 853.8162439552491 51.01714247964064 L 854.0456202332407 50.98761869151416 L 854.2756381336088 50.95913326874524 L 854.506274654755 50.93168905985244 L 854.7375067332193 50.90528880923376 L 854.9693112459867 50.87993515689227 L 855.201665012799 50.85563063817208 L 855.4345447984732 50.83237768350481 L 855.6679273152248 50.81017861816654 L 855.9017892249966 50.78903566204531 L 856.1361071417924 50.768950929419105 L 856.3708576340159 50.749926428744466 L 856.6060172268135 50.7319640624556 L 856.8415624044219 50.71506562677416 L 857.0774696125195 50.69923281152964 L 857.3137152605823 50.684467199990365 L 857.550275724242 50.6707702687052 L 857.7871273476499 50.658143387355835 L 858.0242464458405 50.64658781861989 L 858.2616093071019 50.63610471804463 L 858.4991921953457 50.62669513393135 L 858.736971352481 50.61836000723063 L 858.9749230007903 50.61110017144819 L 859.2130233453071 50.604916352561574 L 859.4512485761952 50.5998091689475 L 859.6895748711303 50.595779131320086 L 859.9279783976813 50.592826642679725 L 860.1664353156941 50.59095199827282 L 860.404921779676 50.59015538556226 L 860.643413941179 50.59043688420866 L 860.8818879511858 50.59179646606236 L 861.1203199624942 50.594233995166334 L 861.3586861321018 50.59774922776969 L 861.59696262359 50.6023418123521 L 861.8351256095085 50.60801128965893 L 862.073151273757 50.61475709274719 L 862.3110158139675 50.622578547042174 L 862.5486954438842 50.63147487040497 L 862.7861663957423 50.64144517321068 L 863.0234049226442 50.6524884584373 L 863.2603873009351 50.66460362176552 L 863.4970898325747 50.67778945168912 L 863.733488847507 50.69204462963607 L 863.9695607060277 50.70736773010048 L 864.2052818011473 50.72375722078505 L 864.440628560953 50.74121146275439 L 864.6755774509649 50.759728710598836 L 864.9101049764896 50.77930711260903 L 865.1441876849703 50.79994471096109 L 865.3778021683311 50.821639441912396 L 865.6109250653182 50.844389136007905 L 865.8435330638363 50.86819151829718 L 866.0756029032793 50.893044208561825 L 866.3071113768568 50.91894472155353 L 866.5380353339143 50.94589046724256 L 866.7683516822485 50.973878751076825 L 866.9980373904165 51.00290677425126 L 867.2270694900388 51.03297163398772 L 867.4554250780965 51.064070323825305 L 867.683081319221 51.09619973392093 L 867.9100154479777 51.129356651360375 L 868.1362047711431 51.16353776047952 L 868.3616266699734 51.198739643195935 L 868.5862586024663 51.23495877935069 L 868.810078105616 51.27219154706035 L 869.0330627976585 51.31043422307917 L 869.2551903803105 51.349682983171405 L 869.476438640999 51.38993390249377 L 869.6967854550821 51.43118295598788 L 869.916208788062 51.47342601878273 L 870.1346866977884 51.51665886660727 L 870.3521973366524 51.56087717621274 L 870.5687189537712 51.60607652580503 L 870.7842298971635 51.65225239548683 L 870.9987086159148 51.69940016770967 L 871.2121336623318 51.74751512773561 L 871.4244836940877 51.79659246410874 L 871.6357374763564 51.84662726913632 L 871.8458738839356 51.89761453937955 L 872.0548719033596 51.949549176153894 L 872.2627106350009 52.00242598603895 L 872.4693692951591 52.0562396813978 L 872.6748272181409 52.11098488090573 L 872.8790638583248 52.16665611008844 L 873.0820587922171 52.22324780186939 L 873.2837917204937 52.28075429712656 L 873.4842424700298 52.339169845258354 L 873.6833909959174 52.398488604758626 L 873.88121738347 52.458704643800864 L 874.0777018502137 52.51981194083135 L 874.2728247478655 52.581804385171296 L 874.4665665642982 52.64467577762793 L 874.6589079254916 52.708419831114405 L 874.84982959747 52.77303017127848 L 875.0393124882252 52.83850033713999 L 875.2273376496261 52.90482378173691 L 875.4138862793131 52.97199387278003 L 875.5989397225788 53.040003893316246 L 875.7824794742331 53.108847042400164 L 875.9644871804538 53.17851643577425 L 876.1449446406219 53.24900510655722 L 876.3238338091418 53.32030600594074 L 876.5011367972455 53.39241200389429 L 876.6768358747823 53.465315889878156 L 876.8509134719907 53.5390103735645 L 877.023352181256 53.61348808556637 L 877.194134758851 53.68874157817461 L 877.3632441266602 53.76476332610268 L 877.5306633738878 53.84154572723915 L 877.6963757587487 53.91908110340788 L 877.8603647101423 53.99736170113587 L 878.0226138293103 54.07637969242858 L 878.183106891476 54.156127175552726 L 878.3418278474668 54.236596175826456 L 878.4987608253193 54.3177786464168 L 878.6538901318667 54.39966646914434 L 878.8072002543075 54.48225145529506 L 878.9586758617572 54.56552534643915 L 879.1083018067814 54.6494798152569 L 879.2560631269101 54.73410646637139 L 879.4019450461346 54.81939683718802 L 879.5459329763845 54.9053423987408 L 879.6880125189867 54.99193455654518 L 879.8281694661055 55.079164651457546 L 879.9663898021627 55.16702396054111 L 880.1026597052401 55.25550369793815 L 880.2369655484608 55.344595015748695 L 880.3692939013526 55.43428900491518 L 880.4996315311903 55.52457669611344 L 880.6279654043196 55.615449060649595 L 880.7542826874603 55.706897011362926 L 880.878570748989 55.79891140353456 L 881.0008171602034 55.891483035801954 L 881.1210096965641 55.98460265107904 L 881.2391363389178 56.07826093748187 L 881.3551852746984 56.17244852925987 L 881.4691448991093 56.26715600773234 L 881.581003816283 56.36237390223035 L 881.6907508404208 56.45809269104382 L 881.798374996912 56.55430280237361 L 881.9038655234305 56.65099461528878 L 882.0072118710115 56.74815846068861 L 882.1084037051064 56.84578462226952 L 882.2074309066163 56.943863337496715 L 882.3042835729033 57.0423847985804 L 882.3989520187816 57.14133915345658 L 882.4914267774856 57.240716506772216 L 882.5816986016164 57.34050692087479 L 882.6697584640667 57.44070041680606 L 882.7555975589238 57.54128697529992 L 882.8392073023498 57.64225653778434 L 882.9205793334397 57.74359900738722 L 882.9997055150586 57.84530424994605 L 883.0765779346541 57.94736209502132 L 883.1511889050482 58.04976233691358 L 883.2235309652062 58.15249473568397 L 883.2935968809825 58.25554901817823 L 883.3613796458435 58.35891487905398 L 883.4268724815695 58.46258198181127 L 883.4900688389314 58.566539959826216 L 883.5509623983461 58.67077841738765 L 883.6095470705085 58.77528693073668 L 883.6658169970001 58.88005504910905 L 883.7197665508753 58.985072295780256 L 883.7713903372236 59.09032816911312 L 883.8206831937092 59.19581214360803 L 883.8676401910878 59.301513670955444 L 883.9122566336987 59.4074221810907 L 883.9545280599348 59.513527083251056 L 883.9944502426886 59.619817767034704 L 884.0320191897753 59.72628360346185 L 884.0672311443312 59.832913946037564 L 884.1000825851906 59.939698131816456 L 884.1305702272365 60.046625482468926 L 884.1586910217302 60.153685305349015 L 884.1844421566155 60.26086689456366 L 884.2078210568008 60.36815953204325 L 884.228825384415 60.47555248861345 L 884.2474530390433 60.5830350250681 L 884.2637021579355 60.69059639324311 L 884.2775711161935 60.79822583709131 L 884.2890585269328 60.905912593758 L 884.2981632414219 61.01364589465726 L 884.3048843491971 61.12141496654876 L 884.309221178153 61.22920903261514 L 884.3111732946106 61.337017313539604 M 884.3112942846666 95.6752857281 L 884.3101018247629 95.78309627301661 L 884.3065245642969 95.89089603696858 L 884.3005628609916 95.99867424006935 L 884.2922173110122 96.1064201045884 L 884.281488748907 96.21412285602908 L 884.2683782475232 96.321771724206 L 884.2528871179 96.42935594432204 L 884.2350169091374 96.53686475804484 L 884.2147694082413 96.64428741458265 L 884.1921466399451 96.75161317175929 L 884.1671508665067 96.85883129708851 L 884.1397845874827 96.96593106884711 L 884.1100505394782 97.07290177714718 L 884.077951695873 97.17973272500701 L 884.0434912665249 97.28641322942086 L 884.0066726974482 97.39293262242717 L 883.9674996704688 97.49928025217542 L 883.925976102857 97.60544548399125 L 883.882106146935 97.71141770143996 L 883.8358941896616 97.8171863073881 L 883.7873448521943 97.92274072506322 L 883.7364629894263 98.02807039911151 L 883.6832536895014 98.13316479665336 L 883.6277222733052 98.23801340833658 L 883.5698742939331 98.34260574938737 L 883.509715536135 98.4469313606588 L 883.4472520157364 98.55097980967666 L 883.3824899790371 98.65474069168278 L 883.3154359021871 98.7582036306754 L 883.2460964905382 98.86135828044685 L 883.1744786779735 98.96419432561812 L 883.1005896262149 99.0667014826704 L 883.0244367241058 99.16886950097337 L 882.946027586873 99.27068816381038 L 882.8653700553649 99.37214728939998 L 882.7824721952675 99.47323673191414 L 882.6973422962976 99.57394638249288 L 882.6099888713742 99.67426617025505 L 882.520420655767 99.77418606330548 L 882.428646606223 99.87369606973812 L 882.3346759000706 99.97278623863527 L 882.238517934302 100.0714466610626 L 882.1401823246339 100.1696674710601 L 882.0396789045451 100.2674388466286 L 881.9370177242939 100.36475101071201 L 881.8322090499129 100.46159423217506 L 881.725263362182 100.55795882677627 L 881.616191355581 100.65383515813649 L 881.5050039372197 100.74921363870249 L 881.3917122257471 100.84408473070569 L 881.2763275502402 100.93843894711594 L 881.1588614490702 101.03226685259024 L 881.0393256687493 101.12555906441622 L 880.917732162756 101.21830625345046 L 880.7940930903396 101.31049914505132 L 880.6684208153042 101.4021285200065 L 880.5407279047728 101.49318521545483 L 880.4110271279297 101.58366012580265 L 880.2793314547448 101.67354420363434 L 880.1456540546756 101.762828460617 L 880.0100082953506 101.85150396839936 L 879.8724077412328 101.93956185950451 L 879.7328661522629 102.02699332821673 L 879.5913974824836 102.11378963146201 L 879.4480158786438 102.19994208968237 L 879.3027356787846 102.28544208770374 L 879.1555714108048 102.37028107559762 L 879.0065377910087 102.45445056953588 L 878.8556497226338 102.53794215263929 L 878.7029222943614 102.6207474758191 L 878.5483707788071 102.70285825861201 L 878.3920106309937 102.78426629000816 L 878.2338574868054 102.86496342927225 L 878.0739271614251 102.9449416067576 L 877.9122356477519 103.02419282471311 L 877.7487991148026 103.10270915808303 L 877.5836339060941 103.18048275529944 L 877.4167565380097 103.25750583906745 L 877.2481836981473 103.33377070714286 L 877.0779322436501 103.4092697331024 L 876.906019199522 103.48399536710642 L 876.732461756924 103.55794013665377 L 876.5572772714556 103.63109664732913 L 876.3804832614196 103.70345758354237 L 876.2020974060696 103.7750157092602 L 876.0221375438423 103.84576386872968 L 875.8406216705743 103.91569498719377 L 875.6575679377013 103.98480207159896 L 875.4729946504443 104.05307821129438 L 875.2869202659781 104.12051657872294 L 875.0993633915862 104.1871104301041 L 874.9103427827995 104.25285310610823 L 874.7198773415216 104.31773803252251 L 874.5279861141378 104.38175872090837 L 874.334688289611 104.44490876925032 L 874.1400031975625 104.50718186259614 L 873.9439503063393 104.5685717736884 L 873.7465492210671 104.62907236358716 L 873.54781968169 104.68867758228383 L 873.3477815609963 104.7473814693062 L 873.1464548626313 104.80517815431453 L 872.9438597190973 104.86206185768845 L 872.7400163897395 104.91802689110501 L 872.5349452587212 104.97306765810755 L 872.3286668329845 105.02717865466522 L 872.1212017402001 105.08035446972343 L 871.9125707267044 105.13258978574503 L 871.702794655425 105.18387937924192 L 871.491894503794 105.23421812129749 L 871.2798913616509 105.28360097807949 L 871.0668064291333 105.33202301134341 L 870.8526610145569 105.37947937892625 L 870.6374765322846 105.4259653352308 L 870.4212745005854 105.4714762317002 L 870.2040765394822 105.51600751728267 L 869.9859043685902 105.55955473888682 L 869.7667798049447 105.60211354182675 L 869.5467247608193 105.64367967025764 L 869.3257612415352 105.68424896760128 L 869.1039113432603 105.72381737696173 L 868.8811972507992 105.76238094153106 L 868.6576412353758 105.79993580498493 L 868.4332656524053 105.83647821186828 L 868.208092939259 105.8720045079709 L 867.9821456130206 105.90651114069276 L 867.7554462682344 105.93999465939936 L 867.528017574646 105.97245171576672 L 867.2998822749352 106.00387906411626 L 867.0710631824419 106.03427356173933 L 866.8415831788845 106.0636321692115 L 866.6114652120725 106.09195195069648 L 866.3807322936104 106.11923007423972 L 866.1494074965981 106.14546381205162 L 865.9175139533222 106.17065054078024 L 865.6850748529441 106.1947877417737 L 865.45211343918 106.21787300133201 L 865.2186530079771 106.23990401094846 L 864.9847169051841 106.26087856754044 L 864.7503285242161 106.28079457366978 L 864.5155113037162 106.29965003775246 L 864.2802887252105 106.31744307425777 L 864.0446843107609 106.3341719038969 L 863.8087216206126 106.34983485380084 L 863.5724242508379 106.36443035768762 L 863.3358158309769 106.37795695601905 L 863.0989200216743 106.39041329614655 L 862.8617605123138 106.40179813244647 L 862.6243610186486 106.4121103264447 L 862.3867452804302 106.42134884693041 L 862.1489370590346 106.42951277005928 L 861.9109601350855 106.43660127944577 L 861.6728383060771 106.44261366624485 L 861.434595383994 106.44754932922287 L 861.1962551929296 106.45140777481762 L 860.9578415667046 106.45418861718778 L 860.7193783464828 106.45589157825142 L 860.4808893783877 106.45651648771386 L 860.2423985111171 106.45606328308465 L 860.0039295935593 106.4545320096839 L 859.7655064724071 106.45192282063768 L 859.5271529897741 106.44823597686269 L 859.2888929808097 106.44347184704026 L 859.0507502713165 106.43763090757939 L 858.8127486753668 106.43071374256917 L 858.574911992922 106.42272104372033 L 858.3372640074521 106.41365361029608 L 858.0998284835575 106.40351234903224 L 857.8626291645928 106.39229827404645 L 857.6256897702924 106.38001250673689 L 857.3890339943981 106.36665627567004 L 857.1526855022903 106.35223091645787 L 856.9166679286212 106.33673787162431 L 856.6810048749517 106.32017869046089 L 856.4457199073905 106.30255502887195 L 856.2108365542385 106.28386864920897 L 855.9763783036352 106.26412142009434 L 855.7423686012104 106.2433153162345 L 855.508830847739 106.22145241822251 L 855.2757883968021 106.19853491232995 L 855.0432645524504 106.17456509028831 L 854.8112825668745 106.14954534905984 L 854.5798656380799 106.12347819059778 L 854.3490369075664 106.09636622159626 L 854.1188194580149 106.06821215322961 L 853.8892363109783 106.03901880088118 L 853.66031042458 106.0087890838619 L 853.432064691218 105.97752602511825 L 853.2045219352754 105.94523275093007 L 852.977704910838 105.91191249059789 L 852.7516362994196 105.87756857611994 L 852.5263387076926 105.84220444185907 L 852.3018346652285 105.8058236241992 L 852.0781466222446 105.76842976119184 L 851.8552969473587 105.73002659219209 L 851.6333079253526 105.69061795748485 L 851.4122017549436 105.65020779790075 L 851.1920005465641 105.60880015442207 L 850.972726320152 105.56639916777867 L 850.7544010029468 105.52300907803387 L 850.5370464272984 105.47863422416049 L 850.3206843284834 105.43327904360692 L 850.105336342531 105.38694807185344 L 849.8910240040608 105.33964594195861 L 849.6777687441277 105.291377384096 L 849.4655918880802 105.24214722508117 L 849.2545146534269 105.19196038788901 L 849.0445581477155 105.1408218911614 L 848.8357433664216 105.08873684870541 L 848.6280911908493 105.03571046898188 L 848.4216223860432 104.98174805458457 L 848.2163575987115 104.92685500170998 L 848.012317355162 104.87103679961766 L 847.809522059249 104.81429903008126 L 847.6079919903333 104.7566473668305 L 847.4077473012536 104.69808757498365 L 847.208808016312 104.63862551047107 L 847.0111940292712 104.57826711944969 L 846.8149251013654 104.51701843770829 L 846.6200208593235 104.45488559006402 L 846.4265007934076 104.39187478974986 L 846.2343842554628 104.32799233779335 L 846.0436904569831 104.26324462238642 L 845.8544384671891 104.19763811824667 L 845.6666472111222 104.13117938596986 L 845.4803354677515 104.0638750713738 L 845.2955218680961 103.99573190483389 L 845.112224893362 103.92675670060999 L 844.9304628730938 103.85695635616503 L 844.7502539833423 103.7863378514753 L 844.571616244846 103.71490824833242 L 844.3945675212301 103.64267468963719 L 844.2191255172193 103.56964439868527 L 844.0453077768678 103.4958246784449 L 843.8731316818049 103.4212229108266 L 843.7026144494965 103.34584655594495 L 843.533773131524 103.26970315137261 L 843.366624611878 103.19280031138662 L 843.2011856052717 103.11514572620688 L 843.0374726554675 103.03674716122718 L 842.8755021336242 102.9576124562387 L 842.7152902366589 102.87774952464599 L 842.5568529856278 102.79716635267567 L 842.400206224124 102.71587099857777 L 842.2453656166931 102.63387159181995 L 842.0923466472668 102.55117633227457 L 841.9411646176145 102.46779348939864 L 841.7918346458132 102.383731401407 L 841.6443716647357 102.29899847443839 L 841.4987904205572 102.21360318171489 L 841.3551054712807 102.12755406269459 L 841.2133311852815 102.04085972221772 L 841.0734817398701 101.95352882964605 L 840.9355711198743 101.86557011799609 L 840.7996131162413 101.77699238306568 L 840.6656213246582 101.68780448255453 L 840.5336091441925 101.59801533517833 L 840.4035897759521 101.50763391977702 L 840.2755762217656 101.41666927441683 L 840.1495812828817 101.32513049548646 L 840.0256175586894 101.23302673678755 L 839.9036974454577 101.14036720861921 L 839.7838331350963 101.04716117685703 L 839.6660366139364 100.95341796202653 L 839.550319661532 100.85914693837105 L 839.4366938494817 100.76435753291443 L 839.3251705402723 100.66905922451821 L 839.2157608861417 100.5732615429338 L 839.108475827964 100.47697406784954 L 839.0033260941557 100.3802064279327 L 838.9003221996027 100.28296829986664 L 838.7994744446083 100.18526940738312 L 838.7007929138642 100.08711952028997 L 838.6042874754413 99.98852845349413 L 838.5099677798029 99.8895060660201 L 838.4178432588399 99.79006226002413 L 838.3279231249277 99.69020697980392 L 838.2402163700048 99.5899502108043 L 838.1547317646734 99.48930197861863 L 838.0714778573232 99.38827234798623 L 837.9904629732752 99.28687142178599 L 837.9116952139503 99.18510934002603 L 837.8351824560591 99.08299627882971 L 837.7609323508133 98.98054244941808 L 837.6889523231617 98.87775809708869 L 837.619249571047 98.7746535001911 L 837.5518310646866 98.67123896909912 L 837.4867035458745 98.56752484517966 L 837.4238735273086 98.46352149975867 L 837.3633472919385 98.35923933308405 L 837.3051308923369 98.25468877328554 L 837.2492301500957 98.14988027533201 L 837.1956506552423 98.04482431998592 L 837.1443977656814 97.93953141275524 L 837.0954766066596 97.83401208284296 L 837.0488920702518 97.72827688209414 L 837.0046488148729 97.62233638394075 L 836.9627512648115 97.5162011823443 L 836.9232036097877 97.40988189073651 L 836.8860098045341 97.30338914095798 L 836.8511735684002 97.19673358219488 L 836.8186983849805 97.08992587991426 L 836.7885875017665 96.9829767147973 L 836.7608439298212 96.87589678167143 L 836.7354704434789 96.7686967884407 L 836.7124695800669 96.66138745501512 L 836.6918436396525 96.55397951223858 L 836.6735946848123 96.44648370081588 L 836.6577245404269 96.33891077023856 L 836.6442347934974 96.23127147771005 L 836.6331267929871 96.1235765870699 L 836.6244016496871 96.01583686771744 L 836.6180602361042 95.90806309353479 L 836.6141031863746 95.80026604180959 L 836.6125308961998 95.69245649215716" stroke-miterlimit="10" stroke-width="2.7769845610000004" stroke-dasharray=""/></g><g><g/><text fill="black" stroke="none" font-family="sans-serif" font-size="11pt" font-style="normal" font-weight="normal" text-decoration="normal" x="811.9618974666666" y="123.98419304699999" text-anchor="start" dominant-baseline="alphabetic" xml:space="preserve">Mockup Server</text></g></g><g><path fill="white" stroke="black" paint-order="fill stroke markers" d=" M 259.72814378333334 182.790924927 L 276.0633470833333 182.790924927 L 276.0633470833333 713.6850321769998 L 259.72814378333334 713.6850321769998 L 259.72814378333334 182.790924927" stroke-miterlimit="10" stroke-width="1.3612669416666667" stroke-dasharray=""/><path fill="white" stroke="black" paint-order="fill stroke markers" d=" M 537.3985503833333 228.529494167 L 553.7337536833334 228.529494167 L 553.7337536833334 365.745201887 L 537.3985503833333 365.745201887 L 537.3985503833333 228.529494167" stroke-miterlimit="10" stroke-width="1.3612669416666667" stroke-dasharray=""/><path fill="white" stroke="black" paint-order="fill stroke markers" d=" M 852.2942958166666 274.268063407 L 868.6294991166667 274.268063407 L 868.6294991166667 320.006632647 L 852.2942958166666 320.006632647 L 852.2942958166666 274.268063407" stroke-miterlimit="10" stroke-width="1.3612669416666667" stroke-dasharray=""/><path fill="white" stroke="black" paint-order="fill stroke markers" d=" M 537.3985503833333 535.6313162069999 L 553.7337536833334 535.6313162069999 L 553.7337536833334 672.8470239269998 L 537.3985503833333 672.8470239269998 L 537.3985503833333 535.6313162069999" stroke-miterlimit="10" stroke-width="1.3612669416666667" stroke-dasharray=""/><path fill="white" stroke="black" paint-order="fill stroke markers" d=" M 852.2942958166666 581.3698854469999 L 868.6294991166667 581.3698854469999 L 868.6294991166667 627.1084546869998 L 852.2942958166666 627.1084546869998 L 852.2942958166666 581.3698854469999" stroke-miterlimit="10" stroke-width="1.3612669416666667" stroke-dasharray=""/><g><g><rect fill="white" stroke="none" x="50.497592221666665" y="161.555160637" width="189.90056099" height="21.23576429"/></g><text fill="black" stroke="none" font-family="sans-serif" font-size="11pt" font-style="normal" font-weight="normal" text-decoration="normal" x="52.947872716666666" y="176.25684360699998" text-anchor="start" dominant-baseline="alphabetic" xml:space="preserve">Open Webpage (Enter URL)</text></g><g><path fill="none" stroke="black" paint-order="fill stroke markers" d=" M 31.16760165 182.790924927 L 246.27882639966668 182.790924927" stroke-miterlimit="10" stroke-width="1.3612669416666667" stroke-dasharray=""/><g transform="translate(259.72814378333334,182.790924927) translate(-259.72814378333334,-182.790924927)"><path fill="black" stroke="none" paint-order="stroke fill markers" d=" M 246.11547436666666 175.98459021866665 L 259.72814378333334 182.790924927 L 246.11547436666666 189.59725963533333 Z"/></g></g><g><g><rect fill="white" stroke="none" x="335.7806682383333" y="207.293729877" width="141.90056099" height="21.23576429"/></g><text fill="black" stroke="none" font-family="sans-serif" font-size="11pt" font-style="normal" font-weight="normal" text-decoration="normal" x="338.2309487333333" y="221.99541284699998" text-anchor="start" dominant-baseline="alphabetic" xml:space="preserve">Request Order Items</text></g><g><path fill="none" stroke="black" paint-order="fill stroke markers" d=" M 276.0633470833333 228.529494167 L 523.9492329996666 228.529494167" stroke-miterlimit="10" stroke-width="1.3612669416666667" stroke-dasharray=""/><g transform="translate(537.3985503833333,228.529494167) translate(-537.3985503833333,-228.529494167)"><path fill="black" stroke="none" paint-order="stroke fill markers" d=" M 523.7858809666666 221.72315945866666 L 537.3985503833333 228.529494167 L 523.7858809666666 235.33582887533333 Z"/></g></g><g><g><rect fill="white" stroke="none" x="590.063744255" y="253.032299117" width="225.90056099" height="21.23576429"/></g><text fill="black" stroke="none" font-family="sans-serif" font-size="11pt" font-style="normal" font-weight="normal" text-decoration="normal" x="592.51402475" y="267.733982087" text-anchor="start" dominant-baseline="alphabetic" xml:space="preserve">Request Data with </text><text fill="black" stroke="none" font-family="sans-serif" font-size="11pt" font-style="normal" font-weight="bold" text-decoration="normal" x="716.51402475" y="267.733982087" text-anchor="start" dominant-baseline="alphabetic" xml:space="preserve">OrderService</text></g><g><path fill="none" stroke="black" paint-order="fill stroke markers" d=" M 553.7337536833334 274.268063407 L 838.8449784329999 274.268063407" stroke-miterlimit="10" stroke-width="1.3612669416666667" stroke-dasharray=""/><g transform="translate(852.2942958166666,274.268063407) translate(-852.2942958166666,-274.268063407)"><path fill="black" stroke="none" paint-order="stroke fill markers" d=" M 838.6816263999999 267.46172869866666 L 852.2942958166666 274.268063407 L 838.6816263999999 281.07439811533334 Z"/></g></g><g><g><rect fill="white" stroke="none" x="634.063744255" y="298.770868357" width="137.90056099" height="21.23576429"/></g><text fill="black" stroke="none" font-family="sans-serif" font-size="11pt" font-style="normal" font-weight="normal" text-decoration="normal" x="636.51402475" y="313.47255132699996" text-anchor="start" dominant-baseline="alphabetic" xml:space="preserve">Retrieve Data (GET)</text></g><g><path fill="none" stroke="black" paint-order="fill stroke markers" d=" M 852.2942958166666 320.006632647 L 567.183071067 320.006632647" stroke-miterlimit="10" stroke-width="1.3612669416666667" stroke-dasharray="6.53408132"/><g transform="translate(553.7337536833334,320.006632647) translate(-553.7337536833334,-320.006632647)"><path fill="black" stroke="none" paint-order="stroke fill markers" d=" M 567.3464231 313.20029793866667 L 553.7337536833334 320.006632647 L 567.3464231 326.81296735533334 Z"/></g></g><g><g><rect fill="white" stroke="none" x="344.7806682383333" y="344.509437597" width="123.90056099" height="21.23576429"/></g><text fill="black" stroke="none" font-family="sans-serif" font-size="11pt" font-style="normal" font-weight="normal" text-decoration="normal" x="347.2309487333333" y="359.21112056699997" text-anchor="start" dominant-baseline="alphabetic" xml:space="preserve">Show Order Items</text></g><g><path fill="none" stroke="black" paint-order="fill stroke markers" d=" M 537.3985503833333 365.745201887 L 289.512664467 365.745201887" stroke-miterlimit="10" stroke-width="1.3612669416666667" stroke-dasharray="6.53408132"/><g transform="translate(276.0633470833333,365.745201887) translate(-276.0633470833333,-365.745201887)"><path fill="black" stroke="none" paint-order="stroke fill markers" d=" M 289.6760165 358.93886717866667 L 276.0633470833333 365.745201887 L 289.6760165 372.55153659533335 Z"/></g></g><g><g><rect fill="white" stroke="none" x="71.49759222166666" y="390.248006837" width="147.90056099" height="21.23576429"/></g><text fill="black" stroke="none" font-family="sans-serif" font-size="11pt" font-style="normal" font-weight="normal" text-decoration="normal" x="73.94787271666667" y="404.94968980699997" text-anchor="start" dominant-baseline="alphabetic" xml:space="preserve">Change Status (Click)</text></g><g><path fill="none" stroke="black" paint-order="fill stroke markers" d=" M 31.16760165 411.483771127 L 246.27882639966668 411.483771127" stroke-miterlimit="10" stroke-width="1.3612669416666667" stroke-dasharray=""/><g transform="translate(259.72814378333334,411.483771127) translate(-259.72814378333334,-411.483771127)"><path fill="black" stroke="none" paint-order="stroke fill markers" d=" M 246.11547436666666 404.6774364186667 L 259.72814378333334 411.483771127 L 246.11547436666666 418.29010583533335 Z"/></g></g><path fill="white" stroke="black" paint-order="fill stroke markers" d=" M 253.19406246333332 435.986576077 L 545.5661520333333 435.986576077 L 560.2678350033333 450.688259047 L 560.2678350033333 489.892746967 L 253.19406246333332 489.892746967 L 253.19406246333332 435.986576077 M 545.5661520333333 435.986576077 L 545.5661520333333 450.688259047 L 560.2678350033333 450.688259047" stroke-miterlimit="10" stroke-width="1.3612669416666667" stroke-dasharray=""/><g><text fill="black" stroke="none" font-family="sans-serif" font-size="11pt" font-style="normal" font-weight="normal" text-decoration="normal" x="284.2309487333333" y="458.85586069699997" text-anchor="start" dominant-baseline="alphabetic" xml:space="preserve">The Status can be Changed between </text><text fill="black" stroke="none" font-family="sans-serif" font-size="11pt" font-style="normal" font-weight="normal" text-decoration="normal" x="284.2309487333333" y="475.19106399699996" text-anchor="start" dominant-baseline="alphabetic" xml:space="preserve">Open, Processing and Closed</text></g><g><g><rect fill="white" stroke="none" x="360.7806682383333" y="514.3955519169999" width="91.90056099" height="21.23576429"/></g><text fill="black" stroke="none" font-family="sans-serif" font-size="11pt" font-style="normal" font-weight="normal" text-decoration="normal" x="363.2309487333333" y="529.0972348869999" text-anchor="start" dominant-baseline="alphabetic" xml:space="preserve">Select Status</text></g><g><path fill="none" stroke="black" paint-order="fill stroke markers" d=" M 276.0633470833333 535.6313162069999 L 523.9492329996666 535.6313162069999" stroke-miterlimit="10" stroke-width="1.3612669416666667" stroke-dasharray=""/><g transform="translate(537.3985503833333,535.6313162069999) translate(-537.3985503833333,-535.6313162069999)"><path fill="black" stroke="none" paint-order="stroke fill markers" d=" M 523.7858809666666 528.8249814986666 L 537.3985503833333 535.6313162069999 L 523.7858809666666 542.4376509153333 Z"/></g></g><g><g><rect fill="white" stroke="none" x="573.063744255" y="560.1341211569999" width="259.90056099" height="21.23576429"/></g><text fill="black" stroke="none" font-family="sans-serif" font-size="11pt" font-style="normal" font-weight="normal" text-decoration="normal" x="575.51402475" y="574.8358041269998" text-anchor="start" dominant-baseline="alphabetic" xml:space="preserve">Update Data with </text><text fill="black" stroke="none" font-family="sans-serif" font-size="11pt" font-style="normal" font-weight="bold" text-decoration="normal" x="690.51402475" y="574.8358041269998" text-anchor="start" dominant-baseline="alphabetic" xml:space="preserve">OrderService</text><text fill="black" stroke="none" font-family="sans-serif" font-size="11pt" font-style="normal" font-weight="normal" text-decoration="normal" x="787.51402475" y="574.8358041269998" text-anchor="start" dominant-baseline="alphabetic" xml:space="preserve"> (PUT)</text></g><g><path fill="none" stroke="black" paint-order="fill stroke markers" d=" M 553.7337536833334 581.3698854469999 L 838.8449784329999 581.3698854469999" stroke-miterlimit="10" stroke-width="1.3612669416666667" stroke-dasharray=""/><g transform="translate(852.2942958166666,581.3698854469999) translate(-852.2942958166666,-581.3698854469999)"><path fill="black" stroke="none" paint-order="stroke fill markers" d=" M 838.6816263999999 574.5635507386665 L 852.2942958166666 581.3698854469999 L 838.6816263999999 588.1762201553332 Z"/></g></g><g><g><rect fill="white" stroke="none" x="652.563744255" y="605.8726903969998" width="100.90056099" height="21.23576429"/></g><text fill="black" stroke="none" font-family="sans-serif" font-size="11pt" font-style="normal" font-weight="normal" text-decoration="normal" x="655.01402475" y="620.5743733669998" text-anchor="start" dominant-baseline="alphabetic" xml:space="preserve">Update Orders</text></g><g><path fill="none" stroke="black" paint-order="fill stroke markers" d=" M 852.2942958166666 627.1084546869998 L 567.183071067 627.1084546869998" stroke-miterlimit="10" stroke-width="1.3612669416666667" stroke-dasharray="6.53408132"/><g transform="translate(553.7337536833334,627.1084546869998) translate(-553.7337536833334,-627.1084546869998)"><path fill="black" stroke="none" paint-order="stroke fill markers" d=" M 567.3464231 620.3021199786665 L 553.7337536833334 627.1084546869998 L 567.3464231 633.9147893953332 Z"/></g></g><g><g><rect fill="white" stroke="none" x="346.2806682383333" y="651.6112596369998" width="120.90056099" height="21.23576429"/></g><text fill="black" stroke="none" font-family="sans-serif" font-size="11pt" font-style="normal" font-weight="normal" text-decoration="normal" x="348.7309487333333" y="666.3129426069997" text-anchor="start" dominant-baseline="alphabetic" xml:space="preserve">Show New Status</text></g><g><path fill="none" stroke="black" paint-order="fill stroke markers" d=" M 537.3985503833333 672.8470239269998 L 289.512664467 672.8470239269998" stroke-miterlimit="10" stroke-width="1.3612669416666667" stroke-dasharray="6.53408132"/><g transform="translate(276.0633470833333,672.8470239269998) translate(-276.0633470833333,-672.8470239269998)"><path fill="black" stroke="none" paint-order="stroke fill markers" d=" M 289.6760165 666.0406892186664 L 276.0633470833333 672.8470239269998 L 289.6760165 679.6533586353331 Z"/></g></g></g><g/><g/><g/><g/></g></svg>