<svg version="1.1" xmlns="http://www.w3.org/2000/svg" xmlns:xlink="http://www.w3.org/1999/xlink" width="1223" height="1492"><desc>title%20Coffee%20Shop%20Architectural%20Sketch%0A%0Aactor%20Customer%0Aparticipant%20WebBrowser%0Aparticipant%20Menu%0Aparticipant%20Confirmation%20Message%20Box%0Adatabase%20Mockup%20Server%0A%0A%0A%23autoactivation%3A%20on%0ACustomer-%3EWebBrowser%3AOpen%20Webpage%20(Enter%20URL)%0Aactivate%20WebBrowser%0AWebBrowser-%3EMenu%3ARequest%20Menu%20Items%0Aactivate%20Menu%0AMenu-%3EMockup%20Server%3ARequest%20Data%20with%20**MenuService**%0Aactivate%20Mockup%20Server%0AMockup%20Server--%3EMenu%3A%20Retrieve%20Data%20(GET)%0Adeactivate%20Mockup%20Server%0AMenu--%3EWebBrowser%3A%20Show%20Menu%20Items%0Adeactivate%20Menu%0ACustomer-%3EWebBrowser%3A%20Add%20Item%20to%20Order%20(Click)%0AWebBrowser-%3EMenu%3A%20Select%20Menu%20Item%0AMenu-%3EConfirmation%20Message%20Box%3A%20Save%20Item%20as%20Selected%20(temporarily)%0Aactivate%20Confirmation%20Message%20Box%0Anote%20right%20of%20Confirmation%20Message%20Box%3ASaves%20the%20selected%20Items%20in%20a%5Cnlist%20in%20**MessageService**%0AConfirmation%20Message%20Box--%3EWebBrowser%3A%20Retrieve%20Updated%20List%0Adeactivate%20Confirmation%20Message%20Box%0ACustomer-%3EWebBrowser%3A%20Open%20Confirmation%20Message%20Box%20(Click)%0AWebBrowser-%3EConfirmation%20Message%20Box%3ARequest%20Selected%20Menu%20Items%5Cnfrom%20**MessageService**%0Aactivate%20Confirmation%20Message%20Box%0Anote%20over%20WebBrowser%2C%20Confirmation%20Message%20Box%3AIf%20there%20are%20no%20selected%20items%2C%5Cnthen%20the%20box%20is%20empty.%0AConfirmation%20Message%20Box--%3EWebBrowser%3ARetrieve%20and%20Show%20Selected%20Menu%20%5CnItems%20with%20**MessageService**%0Adeactivate%20Confirmation%20Message%20Box%0Aalt%20Delete%20Current%20Selection%0ACustomer-%3EWebBrowser%3A%20Clear%20Menu%20Items%20(Click)%0AWebBrowser-%3EConfirmation%20Message%20Box%3A%20Process%20Deletion%20of%20Selected%20%5CnItems%20in%20**MessageService**%0Aactivate%20Confirmation%20Message%20Box%0AConfirmation%20Message%20Box--%3EWebBrowser%3A%20Retrieve%20the%20Empty%20List%20from%20%5Cn**MessageService**%0Adeactivate%20Confirmation%20Message%20Box%0Aelse%20Order%20Current%20Selection%0ACustomer-%3EWebBrowser%3A%20Confirm%20Order%20(Click)%0AWebBrowser-%3EConfirmation%20Message%20Box%3A%20Process%20Adding%20the%20Selected%20Items%20to%20%5Cna%20New%20Order%20with%20**MessageService**%0Aactivate%20Confirmation%20Message%20Box%0AConfirmation%20Message%20Box-%3EMockup%20Server%3A%20Add%20a%20New%20Order%20with%20%5Cn**OrderService**%20(POST)%0Aactivate%20Mockup%20Server%0AMockup%20Server--%3EConfirmation%20Message%20Box%3A%20Update%20Orders%0Adeactivate%20Mockup%20Server%0AConfirmation%20Message%20Box--%3EWebBrowser%3A%20Reset%20List%20of%20Selected%20Items%20and%20Retreive%20%5Cnthe%20Empty%20List%20with%20**MessageService**%0Adeactivate%20Confirmation%20Message%20Box%0Aend%0A%0A%0A%0A%0A%0A%23Bob-%3E(1)Double%20click%20to%20edit%20text%3Anon-instantaneous%20message%0A%0A</desc><defs/><g><g/><g/><g/><g/><g/><g/><g/><g/><g/><g/><g/><g/><g/><g/><g/><g/><g/><g/><g/><g/><g/><g/><g/><g/><g/><g/><g/><g/><g/><g/><g/><g/><g/><g/><g/><g/><g/><g/><g/><g><rect fill="white" stroke="none" x="0" y="0" width="1223" height="1492"/></g><g><text fill="black" stroke="none" font-family="sans-serif" font-size="16.5pt" font-style="normal" font-weight="normal" text-decoration="normal" x="449.77318046589846" y="24.50280495" text-anchor="start" dominant-baseline="alphabetic" xml:space="preserve">Coffee Shop Architectural Sketch</text></g><g/><g><path fill="none" stroke="black" paint-order="fill stroke markers" d=" M 73.50841485 128.884754037 L 73.50841485 1492.8742295869997" stroke-miterlimit="10" stroke-width="1.3612669416666667" stroke-dasharray="12.565541,5.445067766666667"/><path fill="none" stroke="black" paint-order="fill stroke markers" d=" M 386.23655863333335 128.884754037 L 386.23655863333335 1492.8742295869997" stroke-miterlimit="10" stroke-width="1.3612669416666667" stroke-dasharray="12.565541,5.445067766666667"/><path fill="none" stroke="black" paint-order="fill stroke markers" d=" M 580.1323040666666 128.884754037 L 580.1323040666666 1492.8742295869997" stroke-miterlimit="10" stroke-width="1.3612669416666667" stroke-dasharray="12.565541,5.445067766666667"/><path fill="none" stroke="black" paint-order="fill stroke markers" d=" M 872.0280495 128.884754037 L 872.0280495 1492.8742295869997" stroke-miterlimit="10" stroke-width="1.3612669416666667" stroke-dasharray="12.565541,5.445067766666667"/><path fill="none" stroke="black" paint-order="fill stroke markers" d=" M 1141.43702534 128.884754037 L 1141.43702534 1492.8742295869997" stroke-miterlimit="10" stroke-width="1.3612669416666667" stroke-dasharray="12.565541,5.445067766666667"/></g><g><g><path fill="white" stroke="black" paint-order="fill stroke markers" d=" M 82.819480731 59.786844078 A 9.311065881 9.311065881 0 1 1 82.81947607546743 59.77753301367084 M 73.50841485 69.097909959 L 73.50841485 89.026857985 M 61.747068473999995 76.285399411 L 85.26976122599999 76.285399411 M 73.50841485 89.026857985 L 61.747068473999995 107.648989747 M 73.50841485 89.026857985 L 85.26976122599999 107.648989747" stroke-miterlimit="10" stroke-width="2.7769845610000004" stroke-dasharray=""/></g><g><g/><text fill="black" stroke="none" font-family="sans-serif" font-size="11pt" font-style="normal" font-weight="normal" text-decoration="normal" x="41.008414849999994" y="123.98419304699999" text-anchor="start" dominant-baseline="alphabetic" xml:space="preserve">Customer</text></g><path fill="none" stroke="none"/><g><path fill="white" stroke="black" paint-order="fill stroke markers" d=" M 325.5128630528333 84.779705127 L 446.9602542138333 84.779705127 L 446.9602542138333 128.884754037 L 325.5128630528333 128.884754037 L 325.5128630528333 84.779705127 Z" stroke-miterlimit="10" stroke-width="2.613632528" stroke-dasharray=""/></g><g><g/><text fill="black" stroke="none" font-family="sans-serif" font-size="11pt" font-style="normal" font-weight="normal" text-decoration="normal" x="343.23655863333335" y="112.549550737" text-anchor="start" dominant-baseline="alphabetic" xml:space="preserve">WebBrowser</text></g><path fill="none" stroke="none"/><g><path fill="white" stroke="black" paint-order="fill stroke markers" d=" M 544.9086084861666 84.779705127 L 615.3559996471666 84.779705127 L 615.3559996471666 128.884754037 L 544.9086084861666 128.884754037 L 544.9086084861666 84.779705127 Z" stroke-miterlimit="10" stroke-width="2.613632528" stroke-dasharray=""/></g><g><g/><text fill="black" stroke="none" font-family="sans-serif" font-size="11pt" font-style="normal" font-weight="normal" text-decoration="normal" x="562.6323040666666" y="112.549550737" text-anchor="start" dominant-baseline="alphabetic" xml:space="preserve">Menu</text></g><path fill="none" stroke="none"/><g><path fill="white" stroke="black" paint-order="fill stroke markers" d=" M 766.8043539194999 84.779705127 L 977.2517450805 84.779705127 L 977.2517450805 128.884754037 L 766.8043539194999 128.884754037 L 766.8043539194999 84.779705127 Z" stroke-miterlimit="10" stroke-width="2.613632528" stroke-dasharray=""/></g><g><g/><text fill="black" stroke="none" font-family="sans-serif" font-size="11pt" font-style="normal" font-weight="normal" text-decoration="normal" x="784.5280495" y="112.549550737" text-anchor="start" dominant-baseline="alphabetic" xml:space="preserve">Confirmation Message Box</text></g><g><path fill="white" stroke="black" paint-order="fill stroke markers" d=" M 1117.587628522 96.867755569 L 1117.587628522 62.563828639 L 1165.286422158 62.563828639 L 1165.286422158 96.867755569" stroke-miterlimit="10" stroke-width="2.7769845610000004" stroke-dasharray=""/><path fill="white" stroke="black" paint-order="fill stroke markers" d=" M 1165.286422158 61.3713587981 L 1165.2852296980964 61.47916934301662 L 1165.2816524376303 61.58696910696859 L 1165.2756907343248 61.69474731006935 L 1165.2673451843457 61.8024931745884 L 1165.2566166222405 61.91019592602908 L 1165.2435061208566 62.017844794206 L 1165.2280149912333 62.125429014322044 L 1165.2101447824707 62.232937828044854 L 1165.1898972815748 62.34036048458265 L 1165.1672745132785 62.44768624175929 L 1165.14227873984 62.55490436708851 L 1165.1149124608162 62.66200413884712 L 1165.0851784128115 62.76897484714718 L 1165.0530795692064 62.87580579500701 L 1165.0186191398582 62.982486299420856 L 1164.9818005707814 63.08900569242717 L 1164.9426275438022 63.19535332217542 L 1164.9011039761904 63.30151855399125 L 1164.8572340202684 63.40749077143996 L 1164.811022062995 63.5132593773881 L 1164.7624727255277 63.618813795063225 L 1164.7115908627597 63.724143469111524 L 1164.6583815628346 63.82923786665337 L 1164.6028501466385 63.93408647833659 L 1164.5450021672666 64.03867881938739 L 1164.4848434094683 64.1430044306588 L 1164.4223798890696 64.24705287967667 L 1164.3576178523706 64.35081376168277 L 1164.2905637755205 64.45427670067541 L 1164.2212243638714 64.55743135044686 L 1164.149606551307 64.66026739561813 L 1164.0757174995483 64.7627745526704 L 1163.999564597439 64.86494257097338 L 1163.9211554602064 64.96676123381039 L 1163.8404979286984 65.06822035939997 L 1163.7576000686008 65.16930980191414 L 1163.672470169631 65.27001945249287 L 1163.5851167447076 65.37033924025505 L 1163.4955485291005 65.47025913330548 L 1163.4037744795562 65.56976913973813 L 1163.309803773404 65.66885930863528 L 1163.2136458076354 65.7675197310626 L 1163.1153101979671 65.86574054106009 L 1163.0148067778784 65.96351191662859 L 1162.9121455976272 66.06082408071202 L 1162.807336923246 66.15766730217506 L 1162.7003912355153 66.25403189677627 L 1162.5913192289145 66.3499082281365 L 1162.480131810553 66.4452867087025 L 1162.3668400990805 66.54015780070569 L 1162.2514554235736 66.63451201711595 L 1162.1339893224035 66.72833992259025 L 1162.0144535420827 66.82163213441623 L 1161.8928600360894 66.91437932345046 L 1161.769220963673 67.00657221505134 L 1161.6435486886376 67.0982015900065 L 1161.515855778106 67.18925828545483 L 1161.386155001263 67.27973319580266 L 1161.2544593280782 67.36961727363435 L 1161.120781928009 67.45890153061701 L 1160.985136168684 67.54757703839935 L 1160.8475356145661 67.6356349295045 L 1160.7079940255962 67.72306639821673 L 1160.566525355817 67.80986270146201 L 1160.4231437519772 67.89601515968236 L 1160.2778635521179 67.98151515770375 L 1160.1306992841382 68.06635414559763 L 1159.981665664342 68.15052363953589 L 1159.8307775959672 68.2340152226393 L 1159.678050167695 68.31682054581911 L 1159.5234986521405 68.39893132861202 L 1159.367138504327 68.48033936000816 L 1159.2089853601387 68.56103649927225 L 1159.0490550347586 68.6410146767576 L 1158.8873635210853 68.72026589471311 L 1158.7239269881359 68.79878222808303 L 1158.5587617794274 68.87655582529945 L 1158.3918844113432 68.95357890906746 L 1158.2233115714807 69.02984377714286 L 1158.0530601169835 69.10534280310242 L 1157.8811470728554 69.18006843710643 L 1157.7075896302574 69.25401320665378 L 1157.532405144789 69.32716971732913 L 1157.355611134753 69.39953065354239 L 1157.1772252794028 69.47108877926021 L 1156.9972654171756 69.54183693872967 L 1156.8157495439075 69.61176805719379 L 1156.6326958110346 69.68087514159897 L 1156.4481225237776 69.74915128129439 L 1156.2620481393114 69.81658964872294 L 1156.0744912649195 69.88318350010411 L 1155.8854706561328 69.94892617610824 L 1155.695005214855 70.01381110252252 L 1155.5031139874711 70.07783179090838 L 1155.3098161629443 70.14098183925032 L 1155.1151310708958 70.20325493259614 L 1154.9190781796726 70.26464484368842 L 1154.7216770944005 70.32514543358717 L 1154.5229475550234 70.38475065228383 L 1154.3229094343296 70.44345453930622 L 1154.1215827359647 70.50125122431453 L 1153.9189875924305 70.55813492768844 L 1153.715144263073 70.61409996110503 L 1153.5100731320545 70.66914072810756 L 1153.3037947063178 70.72325172466522 L 1153.0963296135335 70.77642753972344 L 1152.8876986000378 70.82866285574504 L 1152.6779225287582 70.87995244924193 L 1152.4670223771273 70.9302911912975 L 1152.2550192349843 70.9796740480795 L 1152.0419343024666 71.0280960813434 L 1151.8277888878902 71.07555244892625 L 1151.612604405618 71.12203840523081 L 1151.3964023739188 71.16754930170019 L 1151.1792044128156 71.21208058728268 L 1150.9610322419235 71.25562780888683 L 1150.741907678278 71.29818661182675 L 1150.5218526341528 71.33975274025764 L 1150.3008891148686 71.38032203760127 L 1150.0790392165936 71.41989044696174 L 1149.8563251241326 71.45845401153106 L 1149.6327691087092 71.49600887498494 L 1149.4083935257386 71.5325512818683 L 1149.1832208125923 71.56807757797091 L 1148.9572734863539 71.60258421069277 L 1148.7305741415678 71.63606772939937 L 1148.5031454479793 71.66852478576672 L 1148.2750101482686 71.69995213411627 L 1148.0461910557751 71.73034663173934 L 1147.816711052218 71.7597052392115 L 1147.5865930854059 71.78802502069648 L 1147.3558601669438 71.81530314423973 L 1147.1245353699314 71.84153688205163 L 1146.8926418266556 71.86672361078024 L 1146.6602027262775 71.8908608117737 L 1146.4272413125134 71.913946071332 L 1146.1937808813104 71.93597708094846 L 1145.9598447785174 71.95695163754044 L 1145.7254563975496 71.97686764366978 L 1145.4906391770496 71.99572310775245 L 1145.255416598544 72.01351614425778 L 1145.0198121840942 72.03024497389691 L 1144.783849493946 72.04590792380084 L 1144.5475521241713 72.06050342768764 L 1144.3109437043101 72.07403002601906 L 1144.0740478950077 72.08648636614654 L 1143.8368883856472 72.09787120244648 L 1143.599488891982 72.1081833964447 L 1143.3618731537636 72.11742191693043 L 1143.124064932368 72.12558584005929 L 1142.886088008419 72.13267434944576 L 1142.6479661794106 72.13868673624485 L 1142.4097232573272 72.14362239922286 L 1142.171383066263 72.14748084481762 L 1141.9329694400378 72.1502616871878 L 1141.6945062198163 72.15196464825142 L 1141.456017251721 72.15258955771385 L 1141.2175263844506 72.15213635308466 L 1140.9790574668928 72.15060507968391 L 1140.7406343457405 72.14799589063767 L 1140.5022808631074 72.1443090468627 L 1140.2640208541432 72.13954491704027 L 1140.0258781446498 72.1337039775794 L 1139.7878765487 72.12678681256918 L 1139.5500398662552 72.11879411372033 L 1139.3123918807853 72.10972668029609 L 1139.0749563568909 72.09958541903224 L 1138.8377570379262 72.08837134404646 L 1138.6008176436258 72.07608557673689 L 1138.3641618677314 72.06272934567005 L 1138.1278133756236 72.04830398645788 L 1137.8917958019547 72.0328109416243 L 1137.656132748285 72.01625176046089 L 1137.420847780724 71.99862809887196 L 1137.185964427572 71.97994171920898 L 1136.9515061769687 71.96019449009434 L 1136.7174964745436 71.9393883862345 L 1136.4839587210724 71.91752548822251 L 1136.2509162701353 71.89460798232996 L 1136.0183924257838 71.87063816028832 L 1135.7864104402079 71.84561841905983 L 1135.5549935114132 71.81955126059778 L 1135.3241647808998 71.79243929159627 L 1135.093947331348 71.7642852232296 L 1134.8643641843116 71.73509187088118 L 1134.6354382979134 71.7048621538619 L 1134.4071925645515 71.67359909511825 L 1134.1796498086087 71.64130582093009 L 1133.9528327841715 71.6079855605979 L 1133.7267641727528 71.57364164611994 L 1133.5014665810259 71.53827751185906 L 1133.276962538562 71.50189669419922 L 1133.053274495578 71.46450283119185 L 1132.830424820692 71.42609966219209 L 1132.608435798686 71.38669102748484 L 1132.3873296282768 71.34628086790075 L 1132.1671284198976 71.30487322442208 L 1131.9478541934852 71.26247223777868 L 1131.72952887628 71.21908214803388 L 1131.5121743006318 71.17470729416048 L 1131.2958122018167 71.12935211360693 L 1131.0804642158644 71.08302114185344 L 1130.866151877394 71.0357190119586 L 1130.652896617461 70.987450454096 L 1130.4407197614134 70.93822029508118 L 1130.2296425267602 70.88803345788901 L 1130.019686021049 70.8368949611614 L 1129.810871239755 70.7848099187054 L 1129.6032190641827 70.73178353898187 L 1129.3967502593764 70.67782112458457 L 1129.1914854720449 70.62292807170999 L 1128.9874452284953 70.56710986961765 L 1128.7846499325824 70.51037210008127 L 1128.5831198636668 70.4527204368305 L 1128.3828751745868 70.39416064498364 L 1128.1839358896455 70.33469858047107 L 1127.9863219026047 70.27434018944969 L 1127.7900529746987 70.2130915077083 L 1127.595148732657 70.15095866006402 L 1127.4016286667409 70.08794785974987 L 1127.2095121287962 70.02406540779336 L 1127.0188183303164 69.95931769238642 L 1126.8295663405224 69.89371118824668 L 1126.6417750844555 69.82725245596986 L 1126.4554633410849 69.7599481413738 L 1126.2706497414295 69.69180497483389 L 1126.0873527666954 69.62282977060998 L 1125.9055907464272 69.55302942616503 L 1125.7253818566755 69.4824109214753 L 1125.5467441181793 69.41098131833243 L 1125.3696953945635 69.3387477596372 L 1125.1942533905526 69.26571746868528 L 1125.020435650201 69.19189774844492 L 1124.8482595551382 69.1172959808266 L 1124.67774232283 69.04191962594494 L 1124.5089010048573 68.96577622137262 L 1124.3417524852114 68.88887338138663 L 1124.176313478605 68.81121879620687 L 1124.012600528801 68.73282023122718 L 1123.8506300069575 68.6536855262387 L 1123.6904181099922 68.573822594646 L 1123.531980858961 68.49323942267567 L 1123.3753340974574 68.41194406857777 L 1123.2204934900265 68.32994466181995 L 1123.0674745206002 68.24724940227456 L 1122.9162924909479 68.16386655939866 L 1122.7669625191465 68.07980447140702 L 1122.619499538069 67.99507154443839 L 1122.4739182938906 67.90967625171488 L 1122.330233344614 67.8236271326946 L 1122.1884590586149 67.73693279221771 L 1122.0486096132033 67.64960189964606 L 1121.9106989932077 67.56164318799608 L 1121.7747409895746 67.47306545306569 L 1121.6407491979917 67.38387755255452 L 1121.5087370175258 67.29408840517834 L 1121.3787176492856 67.20370698977703 L 1121.250704095099 67.11274234441683 L 1121.1247091562152 67.02120356548647 L 1121.0007454320228 66.92909980678756 L 1120.878825318791 66.83644027861922 L 1120.7589610084297 66.74323424685704 L 1120.6411644872696 66.64949103202653 L 1120.5254475348652 66.55522000837107 L 1120.4118217228151 66.46043060291444 L 1120.3002984136056 66.3651322945182 L 1120.190888759475 66.2693346129338 L 1120.0836037012973 66.17304713784955 L 1119.978453967489 66.07627949793272 L 1119.875450072936 65.97904136986665 L 1119.7746023179418 65.88134247738313 L 1119.6759207871976 65.78319259028999 L 1119.5794153487748 65.68460152349414 L 1119.485095653136 65.58557913602012 L 1119.3929711321732 65.48613533002413 L 1119.303050998261 65.38628004980393 L 1119.215344243338 65.2860232808043 L 1119.1298596380068 65.18537504861862 L 1119.0466057306564 65.08434541798623 L 1118.9655908466086 64.982944491786 L 1118.8868230872838 64.88118241002603 L 1118.8103103293925 64.77906934882972 L 1118.7360602241467 64.67661551941809 L 1118.664080196495 64.5738311670887 L 1118.5943774443804 64.47072657019112 L 1118.5269589380198 64.36731203909913 L 1118.4618314192078 64.26359791517966 L 1118.399001400642 64.15959456975868 L 1118.3384751652718 64.05531240308405 L 1118.2802587656704 63.95076184328555 L 1118.224358023429 63.84595334533201 L 1118.1707785285755 63.74089738998592 L 1118.119525639015 63.63560448275524 L 1118.0706044799929 63.530085152842965 L 1118.0240199435852 63.42434995209415 L 1117.9797766882061 63.318409453940745 L 1117.9378791381448 63.2122742523443 L 1117.898331483121 63.105954960736526 L 1117.8611376778674 62.99946221095797 L 1117.8263014417334 62.892806652194885 L 1117.7938262583139 62.78599894991426 L 1117.7637153750998 62.679049784797314 L 1117.7359718031546 62.57196985167143 L 1117.7105983168121 62.464769858440704 L 1117.6875974534003 62.357460525015114 L 1117.6669715129858 62.25005258223858 L 1117.6487225581457 62.14255677081588 L 1117.6328524137602 62.03498384023857 L 1117.6193626668307 61.92734454771006 L 1117.6082546663206 61.81964965706991 L 1117.5995295230205 61.71190993771744 L 1117.5931881094375 61.6041361635348 L 1117.5892310597078 61.49633911180959 L 1117.5876587695332 61.38852956215717 L 1117.5884713961411 61.28071829544265 L 1117.5916688582697 61.172916092702856 L 1117.5972508361754 61.06513373406823 L 1117.605216771665 60.957381997684834 L 1117.6155658681519 60.84967165863649 L 1117.6282970907346 60.74201348786736 L 1117.6434091663018 60.6344182511048 L 1117.6609005836583 60.526896707782825 L 1117.680769593677 60.41945960996616 L 1117.7030142094738 60.31211770127506 L 1117.7276322066052 60.204881715810956 L 1117.7546211232923 60.097762377083015 L 1117.7839782606657 59.99077039693585 L 1117.815700683036 59.88391647447831 L 1117.849785218188 59.7772112950136 L 1117.886228457696 59.67066552897075 L 1117.9250267572668 59.56428983083758 L 1117.9661762371024 59.45809483809524 L 1118.0096727822895 59.35209117015452 L 1118.0555120432095 59.24628942729389 L 1118.1036894359747 59.14070018959944 L 1118.1542001428859 59.03533401590697 L 1118.2070391129146 58.93020144274604 L 1118.2622010622076 58.82531298328635 L 1118.3196804746162 58.72067912628645 L 1118.3794716022471 58.61631033504484 L 1118.441568466037 58.51221704635366 L 1118.5059648563515 58.40840966945505 L 1118.5726543336052 58.30489858500019 L 1118.641630228906 58.20169414401126 L 1118.7128856447218 58.098806666846365 L 1118.7864134555705 57.996246442167475 L 1118.862206308732 57.894023725911595 L 1118.9402566249846 57.79214874026516 L 1119.0205565993613 57.69063167264185 L 1119.1030982019317 57.58948267466382 L 1119.1878731786046 57.488711861146584 L 1119.2748730519525 57.38832930908751 L 1119.364089122061 57.28834505665816 L 1119.4555124673968 57.18876910220045 L 1119.5491339457024 57.08961140322686 L 1119.6449441949076 56.99088187542464 L 1119.7429336340672 56.8925903916643 L 1119.843092464319 56.794746781012314 L 1119.9454106698633 56.6973608277482 L 1120.0498780189653 56.60044227038614 L 1120.1564840649767 56.5040008007011 L 1120.265218147382 56.40804606275968 L 1120.3760693928634 56.31258765195572 L 1120.4890267163887 56.217635114050736 L 1120.6040788223197 56.12319794421941 L 1120.7212142055419 56.029285586100016 L 1120.8404211526145 55.93590743085011 L 1120.9616877429419 55.8430728162074 L 1121.0850018499661 55.75079102555599 L 1121.2103511423797 55.65907128699804 L 1121.3377230853573 55.56792277243099 L 1121.4671049418112 55.47735459663031 L 1121.5984837736632 55.387375816338135 L 1121.7318464431398 55.29799542935749 L 1121.8671796140852 55.20922237365261 L 1122.004469753295 55.12106552645507 L 1122.1437031318699 55.033533703376136 L 1122.2848658265877 54.94663565752517 L 1122.427943721297 54.86038007863435 L 1122.572922508327 54.77477559218967 L 1122.7197876899204 54.689830758568455 L 1122.868524579681 54.60555407218327 L 1123.019118304044 54.52195396063252 L 1123.1715538037622 54.439038783857704 L 1123.325815835413 54.35681683330739 L 1123.4818889729218 54.27529633110813 L 1123.6397576091047 54.19448542924221 L 1123.7994059572295 54.114392208732454 L 1123.9608180525947 54.03502467883419 L 1124.123977754125 53.95639077623426 L 1124.2888687459867 53.878498364257396 L 1124.4554745392177 53.801355232079885 L 1124.6237784733773 53.72496909395066 L 1124.7937637182126 53.649347588419886 L 1124.965413275341 53.57449827757509 L 1125.1387099799492 53.50042864628498 L 1125.3136365025118 53.42714610145097 L 1125.490175350522 53.35465797126647 L 1125.668308870242 53.28297150448409 L 1125.8480192484685 53.21209386969077 L 1126.0292885143135 53.14203215459092 L 1126.2120985410013 53.072793365297684 L 1126.3964310476815 53.00438442563227 L 1126.5822676012572 52.93681217643165 L 1126.7695896182277 52.870083374864436 L 1126.9583783665478 52.80420469375517 L 1127.1486149674995 52.739182720917064 L 1127.3402803975816 52.67502395849323 L 1127.5333554904107 52.611734822306424 L 1127.7278209386384 52.54932164121754 L 1127.9236572958819 52.48779065649267 L 1128.1208449786689 52.427148021179015 L 1128.319364268395 52.36739979948956 L 1128.519195313297 52.3085519661967 L 1128.720318130437 52.25061040603471 L 1128.9227126077005 52.19358091311133 L 1129.1263585058086 52.13746919032833 L 1129.3312354603415 52.08228084881122 L 1129.5373229837742 52.02802140734818 L 1129.7446004675262 51.974696291838114 L 1129.9530471840217 51.922310834748146 L 1130.1626422887628 51.87087027458034 L 1130.3733648224138 51.82037975534783 L 1130.5851937128969 51.770844326060484 L 1130.7981077774994 51.72226894021993 L 1131.0120857249924 51.674658455324284 L 1131.2271061577596 51.62801763238236 L 1131.4431475739368 51.58235113543759 L 1131.6601883695625 51.5376635311016 L 1131.8782068407377 51.49395928809759 L 1132.0971811857974 51.451242776813444 L 1132.317089507489 51.409518268864694 L 1132.5379098151643 51.368789936667355 L 1132.7596200269759 51.32906185302072 L 1132.9821979720878 51.29033799070003 L 1133.2056213928909 51.252622222059266 L 1133.429867947229 51.21591831864385 L 1133.654915210634 51.18022995081354 L 1133.8807406785668 51.14556068737539 L 1134.1073217686687 51.11191399522683 L 1134.3346358230199 51.079293239009054 L 1134.562660110404 51.047701680770494 L 1134.7913718285824 51.01714247964064 L 1135.020748106574 50.98761869151416 L 1135.250766006942 50.95913326874524 L 1135.4814025280882 50.93168905985244 L 1135.7126346065527 50.90528880923376 L 1135.9444391193201 50.87993515689227 L 1136.1767928861325 50.85563063817208 L 1136.4096726718067 50.83237768350481 L 1136.6430551885583 50.81017861816654 L 1136.8769170983298 50.78903566204531 L 1137.1112350151257 50.768950929419105 L 1137.3459855073493 50.749926428744466 L 1137.5811451001468 50.7319640624556 L 1137.8166902777552 50.71506562677416 L 1138.0525974858529 50.69923281152964 L 1138.2888431339156 50.684467199990365 L 1138.5254035975754 50.6707702687052 L 1138.7622552209832 50.658143387355835 L 1138.9993743191737 50.64658781861989 L 1139.2367371804353 50.63610471804463 L 1139.474320068679 50.62669513393135 L 1139.7120992258144 50.61836000723063 L 1139.9500508741237 50.61110017144819 L 1140.1881512186405 50.604916352561574 L 1140.4263764495286 50.5998091689475 L 1140.6647027444635 50.595779131320086 L 1140.9031062710146 50.592826642679725 L 1141.1415631890275 50.59095199827282 L 1141.3800496530093 50.59015538556226 L 1141.6185418145124 50.59043688420866 L 1141.8570158245193 50.59179646606236 L 1142.0954478358276 50.594233995166334 L 1142.333814005435 50.59774922776969 L 1142.5720904969235 50.6023418123521 L 1142.8102534828417 50.60801128965893 L 1143.0482791470904 50.61475709274719 L 1143.2861436873009 50.622578547042174 L 1143.5238233172176 50.63147487040497 L 1143.7612942690755 50.64144517321068 L 1143.9985327959776 50.6524884584373 L 1144.2355151742686 50.66460362176552 L 1144.4722177059082 50.67778945168912 L 1144.7086167208404 50.69204462963607 L 1144.944688579361 50.70736773010048 L 1145.1804096744806 50.72375722078505 L 1145.4157564342863 50.74121146275439 L 1145.650705324298 50.759728710598836 L 1145.885232849823 50.77930711260903 L 1146.1193155583037 50.79994471096109 L 1146.3529300416644 50.821639441912396 L 1146.5860529386516 50.844389136007905 L 1146.8186609371696 50.86819151829718 L 1147.0507307766127 50.893044208561825 L 1147.2822392501903 50.91894472155353 L 1147.5131632072475 50.94589046724256 L 1147.7434795555819 50.973878751076825 L 1147.9731652637497 51.00290677425126 L 1148.202197363372 51.03297163398772 L 1148.4305529514297 51.064070323825305 L 1148.6582091925543 51.09619973392093 L 1148.885143321311 51.129356651360375 L 1149.1113326444765 51.16353776047952 L 1149.3367545433066 51.198739643195935 L 1149.5613864757997 51.23495877935069 L 1149.7852059789493 51.27219154706035 L 1150.0081906709918 51.31043422307917 L 1150.2303182536439 51.349682983171405 L 1150.4515665143324 51.38993390249377 L 1150.6719133284155 51.43118295598788 L 1150.8913366613954 51.47342601878273 L 1151.109814571122 51.51665886660727 L 1151.3273252099857 51.56087717621274 L 1151.5438468271045 51.60607652580503 L 1151.759357770497 51.65225239548683 L 1151.9738364892482 51.69940016770967 L 1152.1872615356651 51.74751512773561 L 1152.399611567421 51.79659246410874 L 1152.6108653496897 51.84662726913632 L 1152.821001757269 51.89761453937955 L 1153.029999776693 51.949549176153894 L 1153.237838508334 52.00242598603895 L 1153.4444971684925 52.0562396813978 L 1153.649955091474 52.11098488090573 L 1153.8541917316581 52.16665611008844 L 1154.0571866655505 52.22324780186939 L 1154.2589195938272 52.28075429712656 L 1154.4593703433632 52.339169845258354 L 1154.6585188692509 52.398488604758626 L 1154.8563452568035 52.458704643800864 L 1155.0528297235471 52.51981194083135 L 1155.2479526211987 52.581804385171296 L 1155.4416944376314 52.64467577762793 L 1155.634035798825 52.708419831114405 L 1155.8249574708034 52.77303017127848 L 1156.0144403615586 52.83850033713999 L 1156.2024655229595 52.90482378173691 L 1156.3890141526465 52.97199387278003 L 1156.5740675959123 53.040003893316246 L 1156.7576073475666 53.108847042400164 L 1156.9396150537873 53.17851643577425 L 1157.1200725139552 53.24900510655722 L 1157.298961682475 53.32030600594074 L 1157.476264670579 53.39241200389429 L 1157.6519637481156 53.465315889878156 L 1157.826041345324 53.5390103735645 L 1157.9984800545892 53.61348808556637 L 1158.1692626321842 53.68874157817461 L 1158.3383719999936 53.76476332610268 L 1158.5057912472212 53.84154572723915 L 1158.671503632082 53.91908110340788 L 1158.8354925834758 53.99736170113587 L 1158.9977417026437 54.07637969242858 L 1159.1582347648093 54.156127175552726 L 1159.3169557208 54.236596175826456 L 1159.4738886986527 54.3177786464168 L 1159.6290180052001 54.39966646914434 L 1159.7823281276408 54.48225145529506 L 1159.9338037350906 54.56552534643915 L 1160.0834296801147 54.6494798152569 L 1160.2311910002436 54.73410646637139 L 1160.377072919468 54.81939683718802 L 1160.521060849718 54.9053423987408 L 1160.6631403923202 54.99193455654518 L 1160.8032973394388 55.079164651457546 L 1160.941517675496 55.16702396054111 L 1161.0777875785734 55.25550369793815 L 1161.2120934217942 55.344595015748695 L 1161.344421774686 55.43428900491518 L 1161.4747594045236 55.52457669611344 L 1161.603093277653 55.615449060649595 L 1161.7294105607937 55.706897011362926 L 1161.8536986223223 55.79891140353456 L 1161.9759450335368 55.891483035801954 L 1162.0961375698976 55.98460265107904 L 1162.214264212251 56.07826093748187 L 1162.3303131480318 56.17244852925987 L 1162.4442727724427 56.26715600773234 L 1162.5561316896162 56.36237390223035 L 1162.6658787137542 56.45809269104382 L 1162.7735028702452 56.55430280237361 L 1162.8789933967637 56.65099461528878 L 1162.982339744345 56.74815846068861 L 1163.0835315784398 56.84578462226952 L 1163.1825587799497 56.943863337496715 L 1163.2794114462367 57.0423847985804 L 1163.374079892115 57.14133915345658 L 1163.466554650819 57.240716506772216 L 1163.5568264749497 57.34050692087479 L 1163.6448863374 57.44070041680606 L 1163.7307254322573 57.54128697529992 L 1163.814335175683 57.64225653778434 L 1163.895707206773 57.74359900738722 L 1163.974833388392 57.84530424994605 L 1164.0517058079874 57.94736209502132 L 1164.1263167783816 58.04976233691358 L 1164.1986588385396 58.15249473568397 L 1164.2687247543158 58.25554901817823 L 1164.3365075191768 58.35891487905398 L 1164.4020003549028 58.46258198181127 L 1164.4651967122647 58.566539959826216 L 1164.5260902716793 58.67077841738765 L 1164.584674943842 58.77528693073668 L 1164.6409448703334 58.88005504910905 L 1164.6948944242088 58.985072295780256 L 1164.7465182105568 59.09032816911312 L 1164.7958110670427 59.19581214360803 L 1164.842768064421 59.301513670955444 L 1164.887384507032 59.4074221810907 L 1164.9296559332681 59.513527083251056 L 1164.969578116022 59.619817767034704 L 1165.0071470631085 59.72628360346185 L 1165.0423590176647 59.832913946037564 L 1165.075210458524 59.939698131816456 L 1165.1056981005697 60.046625482468926 L 1165.1338188950635 60.153685305349015 L 1165.159570029949 60.26086689456366 L 1165.182948930134 60.36815953204325 L 1165.2039532577485 60.47555248861345 L 1165.2225809123765 60.5830350250681 L 1165.238830031269 60.69059639324311 L 1165.2526989895268 60.79822583709131 L 1165.264186400266 60.905912593758 L 1165.2732911147552 61.01364589465726 L 1165.2800122225303 61.12141496654876 L 1165.2843490514865 61.22920903261514 L 1165.286301167944 61.337017313539604 M 1165.286422158 95.6752857281 L 1165.2852296980964 95.78309627301661 L 1165.2816524376303 95.89089603696858 L 1165.2756907343248 95.99867424006935 L 1165.2673451843457 96.1064201045884 L 1165.2566166222405 96.21412285602908 L 1165.2435061208566 96.321771724206 L 1165.2280149912333 96.42935594432204 L 1165.2101447824707 96.53686475804484 L 1165.1898972815748 96.64428741458265 L 1165.1672745132785 96.75161317175929 L 1165.14227873984 96.85883129708851 L 1165.1149124608162 96.96593106884711 L 1165.0851784128115 97.07290177714718 L 1165.0530795692064 97.17973272500701 L 1165.0186191398582 97.28641322942086 L 1164.9818005707814 97.39293262242717 L 1164.9426275438022 97.49928025217542 L 1164.9011039761904 97.60544548399125 L 1164.8572340202684 97.71141770143996 L 1164.811022062995 97.8171863073881 L 1164.7624727255277 97.92274072506322 L 1164.7115908627597 98.02807039911151 L 1164.6583815628346 98.13316479665336 L 1164.6028501466385 98.23801340833658 L 1164.5450021672666 98.34260574938737 L 1164.4848434094683 98.4469313606588 L 1164.4223798890696 98.55097980967666 L 1164.3576178523706 98.65474069168278 L 1164.2905637755205 98.7582036306754 L 1164.2212243638714 98.86135828044685 L 1164.149606551307 98.96419432561812 L 1164.0757174995483 99.0667014826704 L 1163.999564597439 99.16886950097337 L 1163.9211554602064 99.27068816381038 L 1163.8404979286984 99.37214728939998 L 1163.7576000686008 99.47323673191414 L 1163.672470169631 99.57394638249288 L 1163.5851167447076 99.67426617025505 L 1163.4955485291005 99.77418606330548 L 1163.4037744795562 99.87369606973812 L 1163.309803773404 99.97278623863527 L 1163.2136458076354 100.0714466610626 L 1163.1153101979671 100.1696674710601 L 1163.0148067778784 100.2674388466286 L 1162.9121455976272 100.36475101071201 L 1162.807336923246 100.46159423217506 L 1162.7003912355153 100.55795882677627 L 1162.5913192289145 100.65383515813649 L 1162.480131810553 100.74921363870249 L 1162.3668400990805 100.84408473070569 L 1162.2514554235736 100.93843894711594 L 1162.1339893224035 101.03226685259024 L 1162.0144535420827 101.12555906441622 L 1161.8928600360894 101.21830625345046 L 1161.769220963673 101.31049914505132 L 1161.6435486886376 101.4021285200065 L 1161.515855778106 101.49318521545483 L 1161.386155001263 101.58366012580265 L 1161.2544593280782 101.67354420363434 L 1161.120781928009 101.762828460617 L 1160.985136168684 101.85150396839936 L 1160.8475356145661 101.93956185950451 L 1160.7079940255962 102.02699332821673 L 1160.566525355817 102.11378963146201 L 1160.4231437519772 102.19994208968237 L 1160.2778635521179 102.28544208770374 L 1160.1306992841382 102.37028107559762 L 1159.981665664342 102.45445056953588 L 1159.8307775959672 102.53794215263929 L 1159.678050167695 102.6207474758191 L 1159.5234986521405 102.70285825861201 L 1159.367138504327 102.78426629000816 L 1159.2089853601387 102.86496342927225 L 1159.0490550347586 102.9449416067576 L 1158.8873635210853 103.02419282471311 L 1158.7239269881359 103.10270915808303 L 1158.5587617794274 103.18048275529944 L 1158.3918844113432 103.25750583906745 L 1158.2233115714807 103.33377070714286 L 1158.0530601169835 103.4092697331024 L 1157.8811470728554 103.48399536710642 L 1157.7075896302574 103.55794013665377 L 1157.532405144789 103.63109664732913 L 1157.355611134753 103.70345758354237 L 1157.1772252794028 103.7750157092602 L 1156.9972654171756 103.84576386872968 L 1156.8157495439075 103.91569498719377 L 1156.6326958110346 103.98480207159896 L 1156.4481225237776 104.05307821129438 L 1156.2620481393114 104.12051657872294 L 1156.0744912649195 104.1871104301041 L 1155.8854706561328 104.25285310610823 L 1155.695005214855 104.31773803252251 L 1155.5031139874711 104.38175872090837 L 1155.3098161629443 104.44490876925032 L 1155.1151310708958 104.50718186259614 L 1154.9190781796726 104.5685717736884 L 1154.7216770944005 104.62907236358716 L 1154.5229475550234 104.68867758228383 L 1154.3229094343296 104.7473814693062 L 1154.1215827359647 104.80517815431453 L 1153.9189875924305 104.86206185768845 L 1153.715144263073 104.91802689110501 L 1153.5100731320545 104.97306765810755 L 1153.3037947063178 105.02717865466522 L 1153.0963296135335 105.08035446972343 L 1152.8876986000378 105.13258978574503 L 1152.6779225287582 105.18387937924192 L 1152.4670223771273 105.23421812129749 L 1152.2550192349843 105.28360097807949 L 1152.0419343024666 105.33202301134341 L 1151.8277888878902 105.37947937892625 L 1151.612604405618 105.4259653352308 L 1151.3964023739188 105.4714762317002 L 1151.1792044128156 105.51600751728267 L 1150.9610322419235 105.55955473888682 L 1150.741907678278 105.60211354182675 L 1150.5218526341528 105.64367967025764 L 1150.3008891148686 105.68424896760128 L 1150.0790392165936 105.72381737696173 L 1149.8563251241326 105.76238094153106 L 1149.6327691087092 105.79993580498493 L 1149.4083935257386 105.83647821186828 L 1149.1832208125923 105.8720045079709 L 1148.9572734863539 105.90651114069276 L 1148.7305741415678 105.93999465939936 L 1148.5031454479793 105.97245171576672 L 1148.2750101482686 106.00387906411626 L 1148.0461910557751 106.03427356173933 L 1147.816711052218 106.0636321692115 L 1147.5865930854059 106.09195195069648 L 1147.3558601669438 106.11923007423972 L 1147.1245353699314 106.14546381205162 L 1146.8926418266556 106.17065054078024 L 1146.6602027262775 106.1947877417737 L 1146.4272413125134 106.21787300133201 L 1146.1937808813104 106.23990401094846 L 1145.9598447785174 106.26087856754044 L 1145.7254563975496 106.28079457366978 L 1145.4906391770496 106.29965003775246 L 1145.255416598544 106.31744307425777 L 1145.0198121840942 106.3341719038969 L 1144.783849493946 106.34983485380084 L 1144.5475521241713 106.36443035768762 L 1144.3109437043101 106.37795695601905 L 1144.0740478950077 106.39041329614655 L 1143.8368883856472 106.40179813244647 L 1143.599488891982 106.4121103264447 L 1143.3618731537636 106.42134884693041 L 1143.124064932368 106.42951277005928 L 1142.886088008419 106.43660127944577 L 1142.6479661794106 106.44261366624485 L 1142.4097232573272 106.44754932922287 L 1142.171383066263 106.45140777481762 L 1141.9329694400378 106.45418861718778 L 1141.6945062198163 106.45589157825142 L 1141.456017251721 106.45651648771386 L 1141.2175263844506 106.45606328308465 L 1140.9790574668928 106.4545320096839 L 1140.7406343457405 106.45192282063768 L 1140.5022808631074 106.44823597686269 L 1140.2640208541432 106.44347184704026 L 1140.0258781446498 106.43763090757939 L 1139.7878765487 106.43071374256917 L 1139.5500398662552 106.42272104372033 L 1139.3123918807853 106.41365361029608 L 1139.0749563568909 106.40351234903224 L 1138.8377570379262 106.39229827404645 L 1138.6008176436258 106.38001250673689 L 1138.3641618677314 106.36665627567004 L 1138.1278133756236 106.35223091645787 L 1137.8917958019547 106.33673787162431 L 1137.656132748285 106.32017869046089 L 1137.420847780724 106.30255502887195 L 1137.185964427572 106.28386864920897 L 1136.9515061769687 106.26412142009434 L 1136.7174964745436 106.2433153162345 L 1136.4839587210724 106.22145241822251 L 1136.2509162701353 106.19853491232995 L 1136.0183924257838 106.17456509028831 L 1135.7864104402079 106.14954534905984 L 1135.5549935114132 106.12347819059778 L 1135.3241647808998 106.09636622159626 L 1135.093947331348 106.06821215322961 L 1134.8643641843116 106.03901880088118 L 1134.6354382979134 106.0087890838619 L 1134.4071925645515 105.97752602511825 L 1134.1796498086087 105.94523275093007 L 1133.9528327841715 105.91191249059789 L 1133.7267641727528 105.87756857611994 L 1133.5014665810259 105.84220444185907 L 1133.276962538562 105.8058236241992 L 1133.053274495578 105.76842976119184 L 1132.830424820692 105.73002659219209 L 1132.608435798686 105.69061795748485 L 1132.3873296282768 105.65020779790075 L 1132.1671284198976 105.60880015442207 L 1131.9478541934852 105.56639916777867 L 1131.72952887628 105.52300907803387 L 1131.5121743006318 105.47863422416049 L 1131.2958122018167 105.43327904360692 L 1131.0804642158644 105.38694807185344 L 1130.866151877394 105.33964594195861 L 1130.652896617461 105.291377384096 L 1130.4407197614134 105.24214722508117 L 1130.2296425267602 105.19196038788901 L 1130.019686021049 105.1408218911614 L 1129.810871239755 105.08873684870541 L 1129.6032190641827 105.03571046898188 L 1129.3967502593764 104.98174805458457 L 1129.1914854720449 104.92685500170998 L 1128.9874452284953 104.87103679961766 L 1128.7846499325824 104.81429903008126 L 1128.5831198636668 104.7566473668305 L 1128.3828751745868 104.69808757498365 L 1128.1839358896455 104.63862551047107 L 1127.9863219026047 104.57826711944969 L 1127.7900529746987 104.51701843770829 L 1127.595148732657 104.45488559006402 L 1127.4016286667409 104.39187478974986 L 1127.2095121287962 104.32799233779335 L 1127.0188183303164 104.26324462238642 L 1126.8295663405224 104.19763811824667 L 1126.6417750844555 104.13117938596986 L 1126.4554633410849 104.0638750713738 L 1126.2706497414295 103.99573190483389 L 1126.0873527666954 103.92675670060999 L 1125.9055907464272 103.85695635616503 L 1125.7253818566755 103.7863378514753 L 1125.5467441181793 103.71490824833242 L 1125.3696953945635 103.64267468963719 L 1125.1942533905526 103.56964439868527 L 1125.020435650201 103.4958246784449 L 1124.8482595551382 103.4212229108266 L 1124.67774232283 103.34584655594495 L 1124.5089010048573 103.26970315137261 L 1124.3417524852114 103.19280031138662 L 1124.176313478605 103.11514572620688 L 1124.012600528801 103.03674716122718 L 1123.8506300069575 102.9576124562387 L 1123.6904181099922 102.87774952464599 L 1123.531980858961 102.79716635267567 L 1123.3753340974574 102.71587099857777 L 1123.2204934900265 102.63387159181995 L 1123.0674745206002 102.55117633227457 L 1122.9162924909479 102.46779348939864 L 1122.7669625191465 102.383731401407 L 1122.619499538069 102.29899847443839 L 1122.4739182938906 102.21360318171489 L 1122.330233344614 102.12755406269459 L 1122.1884590586149 102.04085972221772 L 1122.0486096132033 101.95352882964605 L 1121.9106989932077 101.86557011799609 L 1121.7747409895746 101.77699238306568 L 1121.6407491979917 101.68780448255453 L 1121.5087370175258 101.59801533517833 L 1121.3787176492856 101.50763391977702 L 1121.250704095099 101.41666927441683 L 1121.1247091562152 101.32513049548646 L 1121.0007454320228 101.23302673678755 L 1120.878825318791 101.14036720861921 L 1120.7589610084297 101.04716117685703 L 1120.6411644872696 100.95341796202653 L 1120.5254475348652 100.85914693837105 L 1120.4118217228151 100.76435753291443 L 1120.3002984136056 100.66905922451821 L 1120.190888759475 100.5732615429338 L 1120.0836037012973 100.47697406784954 L 1119.978453967489 100.3802064279327 L 1119.875450072936 100.28296829986664 L 1119.7746023179418 100.18526940738312 L 1119.6759207871976 100.08711952028997 L 1119.5794153487748 99.98852845349413 L 1119.485095653136 99.8895060660201 L 1119.3929711321732 99.79006226002413 L 1119.303050998261 99.69020697980392 L 1119.215344243338 99.5899502108043 L 1119.1298596380068 99.48930197861863 L 1119.0466057306564 99.38827234798623 L 1118.9655908466086 99.28687142178599 L 1118.8868230872838 99.18510934002603 L 1118.8103103293925 99.08299627882971 L 1118.7360602241467 98.98054244941808 L 1118.664080196495 98.87775809708869 L 1118.5943774443804 98.7746535001911 L 1118.5269589380198 98.67123896909912 L 1118.4618314192078 98.56752484517966 L 1118.399001400642 98.46352149975867 L 1118.3384751652718 98.35923933308405 L 1118.2802587656704 98.25468877328554 L 1118.224358023429 98.14988027533201 L 1118.1707785285755 98.04482431998592 L 1118.119525639015 97.93953141275524 L 1118.0706044799929 97.83401208284296 L 1118.0240199435852 97.72827688209414 L 1117.9797766882061 97.62233638394075 L 1117.9378791381448 97.5162011823443 L 1117.898331483121 97.40988189073651 L 1117.8611376778674 97.30338914095798 L 1117.8263014417334 97.19673358219488 L 1117.7938262583139 97.08992587991426 L 1117.7637153750998 96.9829767147973 L 1117.7359718031546 96.87589678167143 L 1117.7105983168121 96.7686967884407 L 1117.6875974534003 96.66138745501512 L 1117.6669715129858 96.55397951223858 L 1117.6487225581457 96.44648370081588 L 1117.6328524137602 96.33891077023856 L 1117.6193626668307 96.23127147771005 L 1117.6082546663206 96.1235765870699 L 1117.5995295230205 96.01583686771744 L 1117.5931881094375 95.90806309353479 L 1117.5892310597078 95.80026604180959 L 1117.5876587695332 95.69245649215716" stroke-miterlimit="10" stroke-width="2.7769845610000004" stroke-dasharray=""/></g><g><g/><text fill="black" stroke="none" font-family="sans-serif" font-size="11pt" font-style="normal" font-weight="normal" text-decoration="normal" x="1092.93702534" y="123.98419304699999" text-anchor="start" dominant-baseline="alphabetic" xml:space="preserve">Mockup Server</text></g></g><g><path fill="white" stroke="black" paint-order="fill stroke markers" d=" M 378.06895698333335 182.790924927 L 394.40416028333334 182.790924927 L 394.40416028333334 1476.5390262869996 L 378.06895698333335 1476.5390262869996 L 378.06895698333335 182.790924927" stroke-miterlimit="10" stroke-width="1.3612669416666667" stroke-dasharray=""/><path fill="white" stroke="black" paint-order="fill stroke markers" d=" M 571.9647024166666 228.529494167 L 588.2999057166667 228.529494167 L 588.2999057166667 365.745201887 L 571.9647024166666 365.745201887 L 571.9647024166666 228.529494167" stroke-miterlimit="10" stroke-width="1.3612669416666667" stroke-dasharray=""/><path fill="white" stroke="black" paint-order="fill stroke markers" d=" M 1133.26942369 274.268063407 L 1149.60462699 274.268063407 L 1149.60462699 320.006632647 L 1133.26942369 320.006632647 L 1133.26942369 274.268063407" stroke-miterlimit="10" stroke-width="1.3612669416666667" stroke-dasharray=""/><path fill="white" stroke="black" paint-order="fill stroke markers" d=" M 863.8604478499999 502.960909607 L 880.19565115 502.960909607 L 880.19565115 627.108454687 L 863.8604478499999 627.108454687 L 863.8604478499999 502.960909607" stroke-miterlimit="10" stroke-width="1.3612669416666667" stroke-dasharray=""/><path fill="white" stroke="black" paint-order="fill stroke markers" d=" M 863.8604478499999 734.920796467 L 880.19565115 734.920796467 L 880.19565115 875.403544847 L 863.8604478499999 875.403544847 L 863.8604478499999 734.920796467" stroke-miterlimit="10" stroke-width="1.3612669416666667" stroke-dasharray=""/><path fill="white" stroke="black" paint-order="fill stroke markers" d=" M 863.8604478499999 1027.320935537 L 880.19565115 1027.320935537 L 880.19565115 1089.394708077 L 863.8604478499999 1089.394708077 L 863.8604478499999 1027.320935537" stroke-miterlimit="10" stroke-width="1.3612669416666667" stroke-dasharray=""/><path fill="white" stroke="black" paint-order="fill stroke markers" d=" M 863.8604478499999 1241.312098767 L 880.19565115 1241.312098767 L 880.19565115 1411.1982130869999 L 863.8604478499999 1411.1982130869999 L 863.8604478499999 1241.312098767" stroke-miterlimit="10" stroke-width="1.3612669416666667" stroke-dasharray=""/><path fill="white" stroke="black" paint-order="fill stroke markers" d=" M 1133.26942369 1303.385871307 L 1149.60462699 1303.385871307 L 1149.60462699 1349.124440547 L 1133.26942369 1349.124440547 L 1133.26942369 1303.385871307" stroke-miterlimit="10" stroke-width="1.3612669416666667" stroke-dasharray=""/><g><g><rect fill="white" stroke="none" x="130.8384054216667" y="161.555160637" width="189.90056099" height="21.23576429"/></g><text fill="black" stroke="none" font-family="sans-serif" font-size="11pt" font-style="normal" font-weight="normal" text-decoration="normal" x="133.28868591666668" y="176.25684360699998" text-anchor="start" dominant-baseline="alphabetic" xml:space="preserve">Open Webpage (Enter URL)</text></g><g><path fill="none" stroke="black" paint-order="fill stroke markers" d=" M 73.50841485 182.790924927 L 364.6196395996667 182.790924927" stroke-miterlimit="10" stroke-width="1.3612669416666667" stroke-dasharray=""/><g transform="translate(378.06895698333335,182.790924927) translate(-378.06895698333335,-182.790924927)"><path fill="black" stroke="none" paint-order="stroke fill markers" d=" M 364.4562875666667 175.98459021866665 L 378.06895698333335 182.790924927 L 364.4562875666667 189.59725963533333 Z"/></g></g><g><g><rect fill="white" stroke="none" x="413.73415085499994" y="207.293729877" width="138.90056099" height="21.23576429"/></g><text fill="black" stroke="none" font-family="sans-serif" font-size="11pt" font-style="normal" font-weight="normal" text-decoration="normal" x="416.18443134999995" y="221.99541284699998" text-anchor="start" dominant-baseline="alphabetic" xml:space="preserve">Request Menu Items</text></g><g><path fill="none" stroke="black" paint-order="fill stroke markers" d=" M 394.40416028333334 228.529494167 L 558.5153850329999 228.529494167" stroke-miterlimit="10" stroke-width="1.3612669416666667" stroke-dasharray=""/><g transform="translate(571.9647024166666,228.529494167) translate(-571.9647024166666,-228.529494167)"><path fill="black" stroke="none" paint-order="stroke fill markers" d=" M 558.3520329999999 221.72315945866666 L 571.9647024166666 228.529494167 L 558.3520329999999 235.33582887533333 Z"/></g></g><g><g><rect fill="white" stroke="none" x="748.8343842083333" y="253.032299117" width="223.90056099" height="21.23576429"/></g><text fill="black" stroke="none" font-family="sans-serif" font-size="11pt" font-style="normal" font-weight="normal" text-decoration="normal" x="751.2846647033333" y="267.733982087" text-anchor="start" dominant-baseline="alphabetic" xml:space="preserve">Request Data with </text><text fill="black" stroke="none" font-family="sans-serif" font-size="11pt" font-style="normal" font-weight="bold" text-decoration="normal" x="875.2846647033333" y="267.733982087" text-anchor="start" dominant-baseline="alphabetic" xml:space="preserve">MenuService</text></g><g><path fill="none" stroke="black" paint-order="fill stroke markers" d=" M 588.2999057166667 274.268063407 L 1119.8201063063332 274.268063407" stroke-miterlimit="10" stroke-width="1.3612669416666667" stroke-dasharray=""/><g transform="translate(1133.26942369,274.268063407) translate(-1133.26942369,-274.268063407)"><path fill="black" stroke="none" paint-order="stroke fill markers" d=" M 1119.6567542733333 267.46172869866666 L 1133.26942369 274.268063407 L 1119.6567542733333 281.07439811533334 Z"/></g></g><g><g><rect fill="white" stroke="none" x="791.8343842083333" y="298.770868357" width="137.90056099" height="21.23576429"/></g><text fill="black" stroke="none" font-family="sans-serif" font-size="11pt" font-style="normal" font-weight="normal" text-decoration="normal" x="794.2846647033333" y="313.47255132699996" text-anchor="start" dominant-baseline="alphabetic" xml:space="preserve">Retrieve Data (GET)</text></g><g><path fill="none" stroke="black" paint-order="fill stroke markers" d=" M 1133.26942369 320.006632647 L 601.7492231003333 320.006632647" stroke-miterlimit="10" stroke-width="1.3612669416666667" stroke-dasharray="6.53408132"/><g transform="translate(588.2999057166667,320.006632647) translate(-588.2999057166667,-320.006632647)"><path fill="black" stroke="none" paint-order="stroke fill markers" d=" M 601.9125751333333 313.20029793866667 L 588.2999057166667 320.006632647 L 601.9125751333333 326.81296735533334 Z"/></g></g><g><g><rect fill="white" stroke="none" x="422.73415085499994" y="344.509437597" width="120.90056099" height="21.23576429"/></g><text fill="black" stroke="none" font-family="sans-serif" font-size="11pt" font-style="normal" font-weight="normal" text-decoration="normal" x="425.18443134999995" y="359.21112056699997" text-anchor="start" dominant-baseline="alphabetic" xml:space="preserve">Show Menu Items</text></g><g><path fill="none" stroke="black" paint-order="fill stroke markers" d=" M 571.9647024166666 365.745201887 L 407.853477667 365.745201887" stroke-miterlimit="10" stroke-width="1.3612669416666667" stroke-dasharray="6.53408132"/><g transform="translate(394.40416028333334,365.745201887) translate(-394.40416028333334,-365.745201887)"><path fill="black" stroke="none" paint-order="stroke fill markers" d=" M 408.0168297 358.93886717866667 L 394.40416028333334 365.745201887 L 408.0168297 372.55153659533335 Z"/></g></g><g><g><rect fill="white" stroke="none" x="142.8384054216667" y="390.248006837" width="165.90056099" height="21.23576429"/></g><text fill="black" stroke="none" font-family="sans-serif" font-size="11pt" font-style="normal" font-weight="normal" text-decoration="normal" x="145.28868591666668" y="404.94968980699997" text-anchor="start" dominant-baseline="alphabetic" xml:space="preserve">Add Item to Order (Click)</text></g><g><path fill="none" stroke="black" paint-order="fill stroke markers" d=" M 73.50841485 411.483771127 L 364.6196395996667 411.483771127" stroke-miterlimit="10" stroke-width="1.3612669416666667" stroke-dasharray=""/><g transform="translate(378.06895698333335,411.483771127) translate(-378.06895698333335,-411.483771127)"><path fill="black" stroke="none" paint-order="stroke fill markers" d=" M 364.4562875666667 404.6774364186667 L 378.06895698333335 411.483771127 L 364.4562875666667 418.29010583533335 Z"/></g></g><g><g><rect fill="white" stroke="none" x="428.81795167999996" y="435.986576077" width="116.90056099" height="21.23576429"/></g><text fill="black" stroke="none" font-family="sans-serif" font-size="11pt" font-style="normal" font-weight="normal" text-decoration="normal" x="431.268232175" y="450.688259047" text-anchor="start" dominant-baseline="alphabetic" xml:space="preserve">Select Menu Item</text></g><g><path fill="none" stroke="black" paint-order="fill stroke markers" d=" M 394.40416028333334 457.222340367 L 566.682986683 457.222340367" stroke-miterlimit="10" stroke-width="1.3612669416666667" stroke-dasharray=""/><g transform="translate(580.1323040666666,457.222340367) translate(-580.1323040666666,-457.222340367)"><path fill="black" stroke="none" paint-order="stroke fill markers" d=" M 566.51963465 450.4160056586667 L 580.1323040666666 457.222340367 L 566.51963465 464.02867507533335 Z"/></g></g><g><g><rect fill="white" stroke="none" x="603.5460954633332" y="481.725145317" width="236.90056099" height="21.23576429"/></g><text fill="black" stroke="none" font-family="sans-serif" font-size="11pt" font-style="normal" font-weight="normal" text-decoration="normal" x="605.9963759583333" y="496.426828287" text-anchor="start" dominant-baseline="alphabetic" xml:space="preserve">Save Item as Selected (temporarily)</text></g><g><path fill="none" stroke="black" paint-order="fill stroke markers" d=" M 580.1323040666666 502.960909607 L 850.4111304663332 502.960909607" stroke-miterlimit="10" stroke-width="1.3612669416666667" stroke-dasharray=""/><g transform="translate(863.8604478499999,502.960909607) translate(-863.8604478499999,-502.960909607)"><path fill="black" stroke="none" paint-order="stroke fill markers" d=" M 850.2477784333332 496.1545748986667 L 863.8604478499999 502.960909607 L 850.2477784333332 509.76724431533336 Z"/></g></g><path fill="white" stroke="black" paint-order="fill stroke markers" d=" M 880.19565115 554.416800002 L 888.3632528 554.416800002 M 888.3632528 527.463714557 L 1110.40013907 527.463714557 L 1125.1018220400001 542.165397527 L 1125.1018220400001 581.369885447 L 888.3632528 581.369885447 L 888.3632528 527.463714557 M 1110.40013907 527.463714557 L 1110.40013907 542.165397527 L 1125.1018220400001 542.165397527" stroke-miterlimit="10" stroke-width="1.3612669416666667" stroke-dasharray=""/><g><text fill="black" stroke="none" font-family="sans-serif" font-size="11pt" font-style="normal" font-weight="normal" text-decoration="normal" x="911.23253742" y="550.3329991769999" text-anchor="start" dominant-baseline="alphabetic" xml:space="preserve">Saves the selected Items in a</text><text fill="black" stroke="none" font-family="sans-serif" font-size="11pt" font-style="normal" font-weight="normal" text-decoration="normal" x="911.23253742" y="566.6682024769999" text-anchor="start" dominant-baseline="alphabetic" xml:space="preserve">list in </text><text fill="black" stroke="none" font-family="sans-serif" font-size="11pt" font-style="normal" font-weight="bold" text-decoration="normal" x="948.23253742" y="566.6682024769999" text-anchor="start" dominant-baseline="alphabetic" xml:space="preserve">MessageService</text></g><g><g><rect fill="white" stroke="none" x="557.1820235716666" y="605.8726903969999" width="143.90056099" height="21.23576429"/></g><text fill="black" stroke="none" font-family="sans-serif" font-size="11pt" font-style="normal" font-weight="normal" text-decoration="normal" x="559.6323040666666" y="620.5743733669999" text-anchor="start" dominant-baseline="alphabetic" xml:space="preserve">Retrieve Updated List</text></g><g><path fill="none" stroke="black" paint-order="fill stroke markers" d=" M 863.8604478499999 627.108454687 L 407.853477667 627.108454687" stroke-miterlimit="10" stroke-width="1.3612669416666667" stroke-dasharray="6.53408132"/><g transform="translate(394.40416028333334,627.108454687) translate(-394.40416028333334,-627.108454687)"><path fill="black" stroke="none" paint-order="stroke fill markers" d=" M 408.0168297 620.3021199786666 L 394.40416028333334 627.108454687 L 408.0168297 633.9147893953333 Z"/></g></g><g><g><rect fill="white" stroke="none" x="92.83840542166668" y="651.6112596369999" width="265.90056099" height="21.23576429"/></g><text fill="black" stroke="none" font-family="sans-serif" font-size="11pt" font-style="normal" font-weight="normal" text-decoration="normal" x="95.28868591666668" y="666.3129426069999" text-anchor="start" dominant-baseline="alphabetic" xml:space="preserve">Open Confirmation Message Box (Click)</text></g><g><path fill="none" stroke="black" paint-order="fill stroke markers" d=" M 73.50841485 672.8470239269999 L 364.6196395996667 672.8470239269999" stroke-miterlimit="10" stroke-width="1.3612669416666667" stroke-dasharray=""/><g transform="translate(378.06895698333335,672.8470239269999) translate(-378.06895698333335,-672.8470239269999)"><path fill="black" stroke="none" paint-order="stroke fill markers" d=" M 364.4562875666667 666.0406892186666 L 378.06895698333335 672.8470239269999 L 364.4562875666667 679.6533586353332 Z"/></g></g><g><g><rect fill="white" stroke="none" x="529.1820235716666" y="697.3498288769999" width="199.90056099" height="21.23576429"/></g><g><rect fill="white" stroke="none" x="529.1820235716666" y="713.6850321769999" width="157.90056099" height="21.23576429"/></g><text fill="black" stroke="none" font-family="sans-serif" font-size="11pt" font-style="normal" font-weight="normal" text-decoration="normal" x="531.6323040666666" y="712.0515118469999" text-anchor="start" dominant-baseline="alphabetic" xml:space="preserve">Request Selected Menu Items</text><text fill="black" stroke="none" font-family="sans-serif" font-size="11pt" font-style="normal" font-weight="normal" text-decoration="normal" x="531.6323040666666" y="728.3867151469999" text-anchor="start" dominant-baseline="alphabetic" xml:space="preserve">from </text><text fill="black" stroke="none" font-family="sans-serif" font-size="11pt" font-style="normal" font-weight="bold" text-decoration="normal" x="565.6323040666666" y="728.3867151469999" text-anchor="start" dominant-baseline="alphabetic" xml:space="preserve">MessageService</text></g><g><path fill="none" stroke="black" paint-order="fill stroke markers" d=" M 394.40416028333334 734.920796467 L 850.4111304663332 734.920796467" stroke-miterlimit="10" stroke-width="1.3612669416666667" stroke-dasharray=""/><g transform="translate(863.8604478499999,734.920796467) translate(-863.8604478499999,-734.920796467)"><path fill="black" stroke="none" paint-order="stroke fill markers" d=" M 850.2477784333332 728.1144617586666 L 863.8604478499999 734.920796467 L 850.2477784333332 741.7271311753333 Z"/></g></g><path fill="white" stroke="black" paint-order="fill stroke markers" d=" M 371.53487566333337 759.423601417 L 872.0280495000001 759.423601417 L 886.72973247 774.125284387 L 886.72973247 813.329772307 L 371.53487566333337 813.329772307 L 371.53487566333337 759.423601417 M 872.0280495000001 759.423601417 L 872.0280495000001 774.125284387 L 886.72973247 774.125284387" stroke-miterlimit="10" stroke-width="1.3612669416666667" stroke-dasharray=""/><g><text fill="black" stroke="none" font-family="sans-serif" font-size="11pt" font-style="normal" font-weight="normal" text-decoration="normal" x="533.1323040666666" y="782.292886037" text-anchor="start" dominant-baseline="alphabetic" xml:space="preserve">If there are no selected items,</text><text fill="black" stroke="none" font-family="sans-serif" font-size="11pt" font-style="normal" font-weight="normal" text-decoration="normal" x="533.1323040666666" y="798.628089337" text-anchor="start" dominant-baseline="alphabetic" xml:space="preserve">then the box is empty.</text></g><g><g><rect fill="white" stroke="none" x="513.1820235716666" y="837.832577257" width="231.90056099" height="21.23576429"/></g><g><rect fill="white" stroke="none" x="513.1820235716666" y="854.167780557" width="193.90056099" height="21.23576429"/></g><text fill="black" stroke="none" font-family="sans-serif" font-size="11pt" font-style="normal" font-weight="normal" text-decoration="normal" x="515.6323040666666" y="852.534260227" text-anchor="start" dominant-baseline="alphabetic" xml:space="preserve">Retrieve and Show Selected Menu </text><text fill="black" stroke="none" font-family="sans-serif" font-size="11pt" font-style="normal" font-weight="normal" text-decoration="normal" x="515.6323040666666" y="868.869463527" text-anchor="start" dominant-baseline="alphabetic" xml:space="preserve">Items with </text><text fill="black" stroke="none" font-family="sans-serif" font-size="11pt" font-style="normal" font-weight="bold" text-decoration="normal" x="585.6323040666666" y="868.869463527" text-anchor="start" dominant-baseline="alphabetic" xml:space="preserve">MessageService</text></g><g><path fill="none" stroke="black" paint-order="fill stroke markers" d=" M 863.8604478499999 875.403544847 L 407.853477667 875.403544847" stroke-miterlimit="10" stroke-width="1.3612669416666667" stroke-dasharray="6.53408132"/><g transform="translate(394.40416028333334,875.403544847) translate(-394.40416028333334,-875.403544847)"><path fill="black" stroke="none" paint-order="stroke fill markers" d=" M 408.0168297 868.5972101386667 L 394.40416028333334 875.403544847 L 408.0168297 882.2098795553334 Z"/></g></g><g><g><rect fill="white" stroke="none" x="143.3384054216667" y="944.0113987069999" width="164.90056099" height="21.23576429"/></g><text fill="black" stroke="none" font-family="sans-serif" font-size="11pt" font-style="normal" font-weight="normal" text-decoration="normal" x="145.78868591666668" y="958.7130816769999" text-anchor="start" dominant-baseline="alphabetic" xml:space="preserve">Clear Menu Items (Click)</text></g><g><path fill="none" stroke="black" paint-order="fill stroke markers" d=" M 73.50841485 965.2471629969999 L 364.6196395996667 965.2471629969999" stroke-miterlimit="10" stroke-width="1.3612669416666667" stroke-dasharray=""/><g transform="translate(378.06895698333335,965.2471629969999) translate(-378.06895698333335,-965.2471629969999)"><path fill="black" stroke="none" paint-order="stroke fill markers" d=" M 364.4562875666667 958.4408282886666 L 378.06895698333335 965.2471629969999 L 364.4562875666667 972.0534977053333 Z"/></g></g><g><g><rect fill="white" stroke="none" x="530.1820235716666" y="989.749967947" width="197.90056099" height="21.23576429"/></g><g><rect fill="white" stroke="none" x="530.1820235716666" y="1006.085171247" width="178.90056099" height="21.23576429"/></g><text fill="black" stroke="none" font-family="sans-serif" font-size="11pt" font-style="normal" font-weight="normal" text-decoration="normal" x="532.6323040666666" y="1004.4516509169999" text-anchor="start" dominant-baseline="alphabetic" xml:space="preserve">Process Deletion of Selected </text><text fill="black" stroke="none" font-family="sans-serif" font-size="11pt" font-style="normal" font-weight="normal" text-decoration="normal" x="532.6323040666666" y="1020.7868542169999" text-anchor="start" dominant-baseline="alphabetic" xml:space="preserve">Items in </text><text fill="black" stroke="none" font-family="sans-serif" font-size="11pt" font-style="normal" font-weight="bold" text-decoration="normal" x="587.6323040666666" y="1020.7868542169999" text-anchor="start" dominant-baseline="alphabetic" xml:space="preserve">MessageService</text></g><g><path fill="none" stroke="black" paint-order="fill stroke markers" d=" M 394.40416028333334 1027.320935537 L 850.4111304663332 1027.320935537" stroke-miterlimit="10" stroke-width="1.3612669416666667" stroke-dasharray=""/><g transform="translate(863.8604478499999,1027.320935537) translate(-863.8604478499999,-1027.320935537)"><path fill="black" stroke="none" paint-order="stroke fill markers" d=" M 850.2477784333332 1020.5146008286666 L 863.8604478499999 1027.320935537 L 850.2477784333332 1034.1272702453332 Z"/></g></g><g><g><rect fill="white" stroke="none" x="532.1820235716666" y="1051.823740487" width="193.90056099" height="21.23576429"/></g><g><rect fill="white" stroke="none" x="532.1820235716666" y="1068.158943787" width="123.90056099" height="21.23576429"/></g><text fill="black" stroke="none" font-family="sans-serif" font-size="11pt" font-style="normal" font-weight="normal" text-decoration="normal" x="534.6323040666666" y="1066.525423457" text-anchor="start" dominant-baseline="alphabetic" xml:space="preserve">Retrieve the Empty List from </text><text fill="black" stroke="none" font-family="sans-serif" font-size="11pt" font-style="normal" font-weight="bold" text-decoration="normal" x="534.6323040666666" y="1082.860626757" text-anchor="start" dominant-baseline="alphabetic" xml:space="preserve">MessageService</text></g><g><path fill="none" stroke="black" paint-order="fill stroke markers" d=" M 863.8604478499999 1089.394708077 L 407.853477667 1089.394708077" stroke-miterlimit="10" stroke-width="1.3612669416666667" stroke-dasharray="6.53408132"/><g transform="translate(394.40416028333334,1089.394708077) translate(-394.40416028333334,-1089.394708077)"><path fill="black" stroke="none" paint-order="stroke fill markers" d=" M 408.0168297 1082.5883733686667 L 394.40416028333334 1089.394708077 L 408.0168297 1096.2010427853331 Z"/></g></g><g><g><rect fill="white" stroke="none" x="153.3384054216667" y="1158.002561937" width="144.90056099" height="21.23576429"/></g><text fill="black" stroke="none" font-family="sans-serif" font-size="11pt" font-style="normal" font-weight="normal" text-decoration="normal" x="155.78868591666668" y="1172.7042449070002" text-anchor="start" dominant-baseline="alphabetic" xml:space="preserve">Confirm Order (Click)</text></g><g><path fill="none" stroke="black" paint-order="fill stroke markers" d=" M 73.50841485 1179.238326227 L 364.6196395996667 1179.238326227" stroke-miterlimit="10" stroke-width="1.3612669416666667" stroke-dasharray=""/><g transform="translate(378.06895698333335,1179.238326227) translate(-378.06895698333335,-1179.238326227)"><path fill="black" stroke="none" paint-order="stroke fill markers" d=" M 364.4562875666667 1172.4319915186668 L 378.06895698333335 1179.238326227 L 364.4562875666667 1186.0446609353332 Z"/></g></g><g><g><rect fill="white" stroke="none" x="502.6820235716666" y="1203.741131177" width="252.90056099" height="21.23576429"/></g><g><rect fill="white" stroke="none" x="502.6820235716666" y="1220.076334477" width="240.90056099" height="21.23576429"/></g><text fill="black" stroke="none" font-family="sans-serif" font-size="11pt" font-style="normal" font-weight="normal" text-decoration="normal" x="505.1323040666666" y="1218.442814147" text-anchor="start" dominant-baseline="alphabetic" xml:space="preserve">Process Adding the Selected Items to </text><text fill="black" stroke="none" font-family="sans-serif" font-size="11pt" font-style="normal" font-weight="normal" text-decoration="normal" x="505.1323040666666" y="1234.7780174470001" text-anchor="start" dominant-baseline="alphabetic" xml:space="preserve">a New Order with </text><text fill="black" stroke="none" font-family="sans-serif" font-size="11pt" font-style="normal" font-weight="bold" text-decoration="normal" x="622.1323040666666" y="1234.7780174470001" text-anchor="start" dominant-baseline="alphabetic" xml:space="preserve">MessageService</text></g><g><path fill="none" stroke="black" paint-order="fill stroke markers" d=" M 394.40416028333334 1241.312098767 L 850.4111304663332 1241.312098767" stroke-miterlimit="10" stroke-width="1.3612669416666667" stroke-dasharray=""/><g transform="translate(863.8604478499999,1241.312098767) translate(-863.8604478499999,-1241.312098767)"><path fill="black" stroke="none" paint-order="stroke fill markers" d=" M 850.2477784333332 1234.5057640586667 L 863.8604478499999 1241.312098767 L 850.2477784333332 1248.1184334753332 Z"/></g></g><g><g><rect fill="white" stroke="none" x="928.282256925" y="1265.8149037169999" width="150.90056099" height="21.23576429"/></g><g><rect fill="white" stroke="none" x="928.282256925" y="1282.150107017" width="156.90056099" height="21.23576429"/></g><text fill="black" stroke="none" font-family="sans-serif" font-size="11pt" font-style="normal" font-weight="normal" text-decoration="normal" x="930.73253742" y="1280.516586687" text-anchor="start" dominant-baseline="alphabetic" xml:space="preserve">Add a New Order with </text><text fill="black" stroke="none" font-family="sans-serif" font-size="11pt" font-style="normal" font-weight="bold" text-decoration="normal" x="930.73253742" y="1296.851789987" text-anchor="start" dominant-baseline="alphabetic" xml:space="preserve">OrderService</text><text fill="black" stroke="none" font-family="sans-serif" font-size="11pt" font-style="normal" font-weight="normal" text-decoration="normal" x="1027.73253742" y="1296.851789987" text-anchor="start" dominant-baseline="alphabetic" xml:space="preserve"> (POST)</text></g><g><path fill="none" stroke="black" paint-order="fill stroke markers" d=" M 880.19565115 1303.385871307 L 1119.8201063063332 1303.385871307" stroke-miterlimit="10" stroke-width="1.3612669416666667" stroke-dasharray=""/><g transform="translate(1133.26942369,1303.385871307) translate(-1133.26942369,-1303.385871307)"><path fill="black" stroke="none" paint-order="stroke fill markers" d=" M 1119.6567542733333 1296.5795365986667 L 1133.26942369 1303.385871307 L 1119.6567542733333 1310.192206015333 Z"/></g></g><g><g><rect fill="white" stroke="none" x="956.282256925" y="1327.888676257" width="100.90056099" height="21.23576429"/></g><text fill="black" stroke="none" font-family="sans-serif" font-size="11pt" font-style="normal" font-weight="normal" text-decoration="normal" x="958.73253742" y="1342.5903592270001" text-anchor="start" dominant-baseline="alphabetic" xml:space="preserve">Update Orders</text></g><g><path fill="none" stroke="black" paint-order="fill stroke markers" d=" M 1133.26942369 1349.124440547 L 893.6449685336667 1349.124440547" stroke-miterlimit="10" stroke-width="1.3612669416666667" stroke-dasharray="6.53408132"/><g transform="translate(880.19565115,1349.124440547) translate(-880.19565115,-1349.124440547)"><path fill="black" stroke="none" paint-order="stroke fill markers" d=" M 893.8083205666667 1342.3181058386667 L 880.19565115 1349.124440547 L 893.8083205666667 1355.9307752553332 Z"/></g></g><g><g><rect fill="white" stroke="none" x="490.1820235716666" y="1373.6272454969999" width="277.90056099" height="21.23576429"/></g><g><rect fill="white" stroke="none" x="490.1820235716666" y="1389.962448797" width="250.90056099" height="21.23576429"/></g><text fill="black" stroke="none" font-family="sans-serif" font-size="11pt" font-style="normal" font-weight="normal" text-decoration="normal" x="492.6323040666666" y="1388.328928467" text-anchor="start" dominant-baseline="alphabetic" xml:space="preserve">Reset List of Selected Items and Retreive </text><text fill="black" stroke="none" font-family="sans-serif" font-size="11pt" font-style="normal" font-weight="normal" text-decoration="normal" x="492.6323040666666" y="1404.664131767" text-anchor="start" dominant-baseline="alphabetic" xml:space="preserve">the Empty List with </text><text fill="black" stroke="none" font-family="sans-serif" font-size="11pt" font-style="normal" font-weight="bold" text-decoration="normal" x="619.6323040666666" y="1404.664131767" text-anchor="start" dominant-baseline="alphabetic" xml:space="preserve">MessageService</text></g><g><path fill="none" stroke="black" paint-order="fill stroke markers" d=" M 863.8604478499999 1411.1982130869999 L 407.853477667 1411.1982130869999" stroke-miterlimit="10" stroke-width="1.3612669416666667" stroke-dasharray="6.53408132"/><g transform="translate(394.40416028333334,1411.1982130869999) translate(-394.40416028333334,-1411.1982130869999)"><path fill="black" stroke="none" paint-order="stroke fill markers" d=" M 408.0168297 1404.3918783786667 L 394.40416028333334 1411.1982130869999 L 408.0168297 1418.004547795333 Z"/></g></g><g><g/><path fill="none" stroke="black" paint-order="fill stroke markers" d=" M 16.335203299999996 899.906349797 L 1198.61023689 899.906349797 L 1198.61023689 1435.7010180369998 L 16.335203299999996 1435.7010180369998 L 16.335203299999996 899.906349797 Z" stroke-miterlimit="10" stroke-width="2.3336004714285714" stroke-dasharray=""/><path fill="white" stroke="black" paint-order="fill stroke markers" d=" M 16.335203299999996 899.906349797 L 16.335203299999996 919.508593757 L 63.005609899999996 919.508593757 L 72.80673188 909.7074717769999 L 72.80673188 899.906349797 L 16.335203299999996 899.906349797" stroke-miterlimit="10" stroke-width="2.3336004714285714" stroke-dasharray=""/><text fill="black" stroke="none" font-family="sans-serif" font-size="8.8pt" font-style="normal" font-weight="bold" text-decoration="normal" x="32.67040659999999" y="912.9745124369999" text-anchor="start" dominant-baseline="alphabetic" xml:space="preserve">alt</text><g><rect fill="white" stroke="none" x="86.691654685" y="901.2131660609999" width="150.90056099" height="16.988611432000003"/></g><text fill="black" stroke="none" font-family="sans-serif" font-size="8.8pt" font-style="normal" font-weight="bold" text-decoration="normal" x="89.14193518" y="912.9745124369999" text-anchor="start" dominant-baseline="alphabetic" xml:space="preserve">[Delete Current Selection]</text><g><path fill="none" stroke="black" paint-order="fill stroke markers" d=" M 16.335203299999996 1113.897513027 L 1198.61023689 1113.897513027" stroke-miterlimit="10" stroke-width="2.3336004714285714" stroke-dasharray="4.083800825"/></g><g/><g><rect fill="white" stroke="none" x="86.691654685" y="1115.204329291" width="147.90056099" height="16.988611432000003"/></g><text fill="black" stroke="none" font-family="sans-serif" font-size="8.8pt" font-style="normal" font-weight="bold" text-decoration="normal" x="89.14193518" y="1126.965675667" text-anchor="start" dominant-baseline="alphabetic" xml:space="preserve">[Order Current Selection]</text></g><g/></g><g/><g/><g/><g/><g/></g></svg>